<?xml version="1.0" encoding="utf-8"?>
<!-- Generator: Adobe Illustrator 19.2.1, SVG Export Plug-In . SVG Version: 6.00 Build 0)  -->
<svg version="1.1" id="Capa_1" xmlns="http://www.w3.org/2000/svg" xmlns:xlink="http://www.w3.org/1999/xlink" x="0px" y="0px"
	 viewBox="0 0 2864 1182.4" style="enable-background:new 0 0 2864 1182.4;" xml:space="preserve">
<style type="text/css">
	.st0{fill-rule:evenodd;clip-rule:evenodd;fill:#388344;}
	.st1{fill-rule:evenodd;clip-rule:evenodd;fill:#1F1D21;}
</style>
<g>
	<path class="st0" d="M374.6,319.8c-46.9,0-85,37.5-85,83.9c0,46.4,38.1,84,85,84l128.7,0.1c22.6,0,50.2-15.7,61.6-35.1l125.3-214.8
		c16.9-29,58.6-52.7,92.4-52.7l197.3,0c122.9,0,222.5,98.4,222.6,219.8c0.1,121.4-99.4,219.7-222.3,219.7l-75.6-0.1
		c-22.5,0-50.3,15.9-61.7,35.2l-39.1,66.9l-161.1-0.1l108.8-186c17-29.2,58.5-52.7,92.4-52.7h136.3c46.9,0,84.9-37.6,84.9-84
		c0-46.4-38.1-83.9-85-84H825.6c-22.5,0-50.4,15.7-61.6,35.2L637.6,572c-16.9,29-58.5,52.7-92.4,52.7H374.7
		c-122.8,0-222.5-98.5-222.5-219.9c-0.1-121.3,99.4-219.6,222.2-219.6l232.7,0.1l-78.7,134.7L374.6,319.8z"/>
	<path class="st1" d="M2711.8,970.8h-73.6v-138h-27.4v162.4h98.9L2711.8,970.8z M2541.6,926.1h-49.1l24.5-72.8L2541.6,926.1z
		 M2592.7,995.2l-57.5-162.4h-35.9l-57.4,162.4h27.6l15.8-47.1h63.5l15.9,47.1H2592.7z M2425,988.1v-79.9h-45.2v18.6l18.5,1.7v41.6
		c-7.9,1.4-17,2.7-27.4,2.7c-19.5,0-34.9-12.1-34.9-39.8v-38.5c0-27,15.4-39.7,34.9-39.7c15.4,0,28.8,2.6,46,7.5l6.2-23.1
		c-21.9-6-35.1-8.7-52.5-8.7c-34.6,0-62,22.7-62,61.4v43.8c0,38.4,27.4,61.3,62,61.3C2387.9,997.1,2405.9,993.9,2425,988.1
		 M2282,940.8V832.5h-27.4v105.6c0,22.3-13,34.5-31.1,34.5c-18.3,0-31.5-12.2-31.5-34.5V832.5h-27.5v108.3
		c0,33.4,26.4,56.3,58.9,56.3C2255.6,997.1,2282,974.2,2282,940.8 M2144.3,832.8h-117.4V857h45v138.1h27.5V857h43.5L2144.3,832.8z
		 M1983.6,880.4c0,14.4-8.4,24.1-23.3,24.1h-28.5V857h28.5C1975.1,857,1983.6,866.4,1983.6,880.4 M2014.4,995.2l-34.4-70.4
		c19.2-7.1,31-24.4,31-44.4c0-26.6-20.7-47.6-50.7-47.6h-55.9v162.4h27.4V928h21.7l31.8,67.1H2014.4z M1850.5,933
		c0,28.5-15.2,40-34.9,40c-19.7,0-34.9-11.6-34.9-40v-37.7c0-27.7,15.1-40.1,34.9-40.1c19.7,0,34.9,12.4,34.9,40.1V933z M1878,935.8
		v-43.1c0-38.3-28.4-61.9-62.4-61.9c-34.4,0-62.3,23.6-62.3,61.9v43.1c0,38.4,27.9,61.5,62.3,61.5
		C1849.6,997.3,1878,974.2,1878,935.8 M1708,882.4c0,16.3-7.3,25.7-21.3,25.7h-30.5V857h30.5C1700.7,857,1708,866.2,1708,882.4
		 M1735.3,882.4c0-26.7-17.6-49.6-48.7-49.6h-57.9v162.4h27.4v-63.5h30.5C1717.7,931.6,1735.3,908.7,1735.3,882.4 M1532.9,995.2
		v-24.4h-45.9c-15.4,0-25.2-10.1-25.2-23.8c0-13.2,8.2-24.1,25.2-24.1h42.4l0.7-22.5h-42.1c-17.4,0-25-10.1-25-22
		c0-12.7,6.8-21.4,24.7-21.4h45.1v-24.2h-45.1c-33.8,0-52.2,20.2-52.2,45.6c0,13.6,7.4,25.1,21.1,33.2c-14.4,8.5-22.4,21-22.4,35.4
		c0,26.8,20.5,48.1,52.7,48.1H1532.9z M1383.7,938.1c0,22.8-9.8,32.7-31.5,32.7h-28.9V860.2c7.2-2.1,18.7-5.2,28.9-5.2
		c18.3,0,31.5,12.5,31.5,34.6V938.1z M1411.4,940.8v-54.2c0-33.3-27.1-56-59.2-56c-19.1,0-36.4,5.8-56.3,13.3v151.3h56.3
		C1388.9,995.2,1411.4,973.8,1411.4,940.8 M1202.2,949.9c0-30.1-21.4-41-40-48.3c-4.6-1.9-8.9-3.4-13.2-5.4
		c-11.3-4.8-20.2-10-20.2-22.1c0-10.8,8.1-19.2,24.8-19.2c12.7,0,24.1,3.2,38.8,7.8l7.2-23c-15.1-5.3-30.1-9.1-46-9.1
		c-29.4,0-52.3,16.8-52.3,44c0,33.7,27,40.3,51.5,51.1c11.1,5.1,21.7,11.2,21.7,24.5c0,13.7-11.8,22.6-26.4,22.6
		c-13.5,0-26.5-3.4-45.2-8.9l-5.2,23.8c17,5.5,31.7,9.4,50.5,9.4C1175.9,997.1,1202.2,981.4,1202.2,949.9 M1049.6,933
		c0,28.5-15.1,40-34.9,40c-19.7,0-34.9-11.6-34.9-40v-37.7c0-27.7,15.2-40.1,34.9-40.1c19.8,0,34.9,12.4,34.9,40.1V933z M1077,935.8
		v-43.1c0-38.3-28.4-61.9-62.4-61.9c-34.3,0-62.3,23.6-62.3,61.9v43.1c0,38.4,28,61.5,62.3,61.5C1048.6,997.3,1077,974.2,1077,935.8
		 M924.7,832.8h-27.4v162.4h27.4V832.8z M842.2,933c0,28.5-15.1,40-34.9,40c-19.7,0-34.9-11.6-34.9-40v-37.7
		c0-27.7,15.2-40.1,34.9-40.1c19.8,0,34.9,12.4,34.9,40.1V933z M869.7,935.8v-43.1c0-38.3-28.4-61.9-62.4-61.9
		c-34.4,0-62.3,23.6-62.3,61.9v43.1c0,38.4,27.9,61.5,62.3,61.5C841.3,997.3,869.7,974.2,869.7,935.8 M701,947
		c0,13.9-7.7,23.8-26.1,23.8h-29.4v-47.9h31.5C695.2,922.9,701,932.8,701,947 M695.2,878.4c0,13-5,22-22.3,22h-27.4V857h25.2
		C688.5,857,695.2,865.7,695.2,878.4 M728.4,947c0-14.6-5.8-28.5-24.3-37.3c14.4-8.4,18.5-19.5,18.5-31.3c0-25.4-19.1-45.6-52-45.6
		H618v162.4h56.8C709.2,995.2,728.4,973.8,728.4,947 M592.8,995.2l-22.1-162.4H536l-23.6,78.4l-8.1,35.3l-8.1-35.3l-23.7-78.4h-34.3
		l-21.5,162.4h27.1l11.7-94.1l3.4-35.7l8.2,35.7l21.2,70.2h32.2l21.1-70.2l8.2-35.7l3.7,35.7l12.3,94.1H592.8z M374.8,933
		c0,28.5-15.1,40-34.8,40c-19.7,0-34.9-11.6-34.9-40v-37.7c0-27.7,15.2-40.1,34.9-40.1c19.7,0,34.8,12.4,34.8,40.1V933z
		 M402.3,935.8v-43.1c0-38.3-28.4-61.9-62.3-61.9c-34.4,0-62.3,23.6-62.3,61.9v43.1c0,38.4,27.9,61.5,62.3,61.5
		C373.9,997.3,402.3,974.2,402.3,935.8 M265.6,989.3l-5.5-23.8c-17.8,5.2-29.3,7.3-45.5,7.3c-19.5,0-34.8-12.4-34.8-39.8v-38.5
		c0-28.4,15.4-39.7,34.8-39.7c16.2,0,27.7,2.1,45.5,7.2l5.5-23.7c-21.4-6-33.9-7.9-51.3-7.9c-34.6,0-62.1,22.7-62.1,61.4v43.8
		c0,38.4,27.5,61.3,62.1,61.3C231.7,997.1,244.2,995.4,265.6,989.3"/>
</g>
</svg>
