<svg id="Layer_1" data-name="Layer 1" xmlns="http://www.w3.org/2000/svg" viewBox="0 0 200 120"><defs><style>.cls-1{fill:#00a3da;}.cls-2{fill:#414141;}</style></defs><title>wit2019_01_08</title><path class="cls-1" d="M59,45.5a4.68,4.68,0,0,1,4.72-4.72h2.36a4.74,4.74,0,0,1,4.72,4.72v26a4.79,4.79,0,0,1-4.72,4.71H55.39a4.79,4.79,0,0,1-4.71-4.71V67.87a3.54,3.54,0,0,0-7.08,0v3.59a4.73,4.73,0,0,1-4.72,4.71H36.52a4.79,4.79,0,0,1-4.72-4.71V69.1a4.67,4.67,0,0,0-4.72-4.72H24.72A4.86,4.86,0,0,1,20,59.66V45.5a4.74,4.74,0,0,1,4.72-4.72h2.36A4.68,4.68,0,0,1,31.8,45.5V60.22a4.15,4.15,0,1,0,8.3,0V45.5a4.68,4.68,0,0,1,4.72-4.72h2.36A4.74,4.74,0,0,1,51.9,45.5V60.79a3.45,3.45,0,0,0,3.49,3.59A3.52,3.52,0,0,0,59,60.79ZM81,59.66a4.65,4.65,0,0,1,4.72,4.62v7.18a4.79,4.79,0,0,0,4.72,4.71H92.8a4.74,4.74,0,0,0,4.73-4.71V52.58a4.68,4.68,0,0,0-4.73-4.72H81a4.74,4.74,0,0,0-4.72,4.72v2.36A4.79,4.79,0,0,0,81,59.66ZM92.8,29H90.45a4.74,4.74,0,0,0-4.72,4.72v2.36a4.79,4.79,0,0,0,4.72,4.72H92.8a4.74,4.74,0,0,0,4.73-4.72V33.7A4.68,4.68,0,0,0,92.8,29Zm12,28.51v2.17a4.79,4.79,0,0,0,4.72,4.72h2.36a4.67,4.67,0,0,1,4.72,4.72v2.36a4.79,4.79,0,0,0,4.72,4.71h2.36a4.73,4.73,0,0,0,4.72-4.71V69.1a4.67,4.67,0,0,0-4.72-4.72h-2.36a4.79,4.79,0,0,1-4.72-4.72V57.49a4.78,4.78,0,0,1,4.72-4.91h2.36a4.74,4.74,0,0,0,4.72-4.72V45.5a4.68,4.68,0,0,0-4.72-4.72h-2.36a4.79,4.79,0,0,1-4.72-4.72V33.7A4.68,4.68,0,0,0,111.92,29h-2.36a4.74,4.74,0,0,0-4.72,4.72V57.49Z"/><path class="cls-2" d="M87.45,90.07a1.07,1.07,0,0,0,1.23,1c.77,0,1.13-.44,1.13-.88s-.17-.59-1-.83L87.45,89A2.13,2.13,0,0,1,85.58,87c0-1.43,1.31-2.31,3.23-2.31,1.52,0,2.74.71,2.8,2.18h-2a.91.91,0,0,0-1-.88c-.58,0-1,.28-1,.73s.36.6,1,.78l1.32.36c1.35.37,2,1.05,2,2.06,0,1.27-1.1,2.54-3.39,2.54a3.33,3.33,0,0,1-2.53-.9,2.15,2.15,0,0,1-.54-1.45Zm9.06-5.42a3.57,3.57,0,0,1,3.82,3.87,3.65,3.65,0,0,1-3.87,4,3.57,3.57,0,0,1-3.77-3.89A3.61,3.61,0,0,1,96.51,84.65Zm0,6.31c1,0,1.6-.57,1.6-2.52,0-1-.19-2.34-1.62-2.34-1.58,0-1.6,1.83-1.6,2.5C94.91,90.25,95.47,91,96.53,91Zm5.35-4.6h-1.1V84.83h1.1v-1c0-1.3.44-2.35,2.54-2.35a10,10,0,0,1,1.17.07v1.51a2.66,2.66,0,0,0-.45,0c-1.11,0-1.11.58-1.11,1v.86h1.37v1.53H104V92.2h-2.15Zm9.71,5.74a6.77,6.77,0,0,1-1.68.24c-2.17,0-2.17-1.38-2.17-2v-4h-1.42V84.87h1.42V83.43l2.14-.79v2.23h1.75V86.3h-1.75v3.33c0,.68,0,1.1,1,1.1.32,0,.47,0,.73,0ZM115,84.83l1.36,5.56,1.56-5.56h2.37l1.55,5.56,1.45-5.56h2.15l-2.53,7.37h-2.35l-1.52-5.46L117.5,92.2h-2.38l-2.41-7.37Zm15.48,7.37a6,6,0,0,1-.07-1,2.87,2.87,0,0,1-4,.6,2.28,2.28,0,0,1-.64-1.62,2.45,2.45,0,0,1,1.56-2.3,7.65,7.65,0,0,1,2.92-.41,3.15,3.15,0,0,0-.1-1,1.05,1.05,0,0,0-1.79-.2,1.12,1.12,0,0,0-.16.66h-2.11a2,2,0,0,1,.83-1.74,3.86,3.86,0,0,1,2.23-.6,3.53,3.53,0,0,1,2.63,1,2.9,2.9,0,0,1,.51,1.81v3a9,9,0,0,0,.18,1.86Zm-2.66-2.27a1,1,0,0,0,1,1,1.23,1.23,0,0,0,.92-.42,2.72,2.72,0,0,0,.41-1.83C128.82,88.61,127.83,89.05,127.83,89.93ZM134,86.64c0-.35-.06-1.42-.1-1.84h2l0,1.42a2.22,2.22,0,0,1,2.51-1.43v1.94c-2.19-.21-2.32.92-2.32,1.84V92.2H134Zm6.91,2.43c0,.48,0,2,1.5,2a1.22,1.22,0,0,0,1.29-1h2a2.48,2.48,0,0,1-.7,1.61,3.6,3.6,0,0,1-2.59.86,3.71,3.71,0,0,1-2.6-.92,4.76,4.76,0,0,1,.59-6.36,3.62,3.62,0,0,1,2.07-.62,3.17,3.17,0,0,1,3,1.78,5.45,5.45,0,0,1,.44,2.71Zm2.74-1.36c0-.34,0-1.65-1.28-1.65-1,0-1.35.79-1.39,1.65Z"/></svg>