<svg width="28" height="28" viewBox="0 0 28 28" fill="none" xmlns="http://www.w3.org/2000/svg">
<path fill-rule="evenodd" clip-rule="evenodd" d="M0.666626 5.99996C0.666626 4.58547 1.22853 3.22892 2.22872 2.22872C3.22892 1.22853 4.58547 0.666626 5.99996 0.666626H22C23.4144 0.666626 24.771 1.22853 25.7712 2.22872C26.7714 3.22892 27.3333 4.58547 27.3333 5.99996V22C27.3333 23.4144 26.7714 24.771 25.7712 25.7712C24.771 26.7714 23.4144 27.3333 22 27.3333H5.99996C4.58547 27.3333 3.22892 26.7714 2.22872 25.7712C1.22853 24.771 0.666626 23.4144 0.666626 22V5.99996ZM5.99996 3.33329C5.29272 3.33329 4.61444 3.61424 4.11434 4.11434C3.61424 4.61444 3.33329 5.29272 3.33329 5.99996V22C3.33329 22.7072 3.61424 23.3855 4.11434 23.8856C4.61444 24.3857 5.29272 24.6666 5.99996 24.6666H14V15.3333H12.6666C12.313 15.3333 11.9739 15.1928 11.7238 14.9428C11.4738 14.6927 11.3333 14.3536 11.3333 14C11.3333 13.6463 11.4738 13.3072 11.7238 13.0572C11.9739 12.8071 12.313 12.6666 12.6666 12.6666H14V10.6666C14 9.42895 14.4916 8.24196 15.3668 7.36679C16.242 6.49162 17.4289 5.99996 18.6666 5.99996H19.4666C19.8202 5.99996 20.1594 6.14044 20.4094 6.39048C20.6595 6.64053 20.8 6.97967 20.8 7.33329C20.8 7.68691 20.6595 8.02605 20.4094 8.2761C20.1594 8.52615 19.8202 8.66663 19.4666 8.66663H18.6666C18.404 8.66663 18.1439 8.71836 17.9013 8.81887C17.6586 8.91938 17.4381 9.0667 17.2524 9.25241C17.0667 9.43813 16.9194 9.65861 16.8189 9.90126C16.7184 10.1439 16.6666 10.404 16.6666 10.6666V12.6666H19.4666C19.8202 12.6666 20.1594 12.8071 20.4094 13.0572C20.6595 13.3072 20.8 13.6463 20.8 14C20.8 14.3536 20.6595 14.6927 20.4094 14.9428C20.1594 15.1928 19.8202 15.3333 19.4666 15.3333H16.6666V24.6666H22C22.7072 24.6666 23.3855 24.3857 23.8856 23.8856C24.3857 23.3855 24.6666 22.7072 24.6666 22V5.99996C24.6666 5.29272 24.3857 4.61444 23.8856 4.11434C23.3855 3.61424 22.7072 3.33329 22 3.33329H5.99996Z" fill="white"/>
</svg>
