<svg width="25" height="25" viewBox="0 0 25 25" fill="none" xmlns="http://www.w3.org/2000/svg">
<path fill-rule="evenodd" clip-rule="evenodd" d="M0.416626 5.24996C0.416626 3.96808 0.925851 2.7387 1.83228 1.83228C2.7387 0.925851 3.96808 0.416626 5.24996 0.416626H19.75C21.0318 0.416626 22.2612 0.925851 23.1676 1.83228C24.0741 2.7387 24.5833 3.96808 24.5833 5.24996V19.75C24.5833 21.0318 24.0741 22.2612 23.1676 23.1676C22.2612 24.0741 21.0318 24.5833 19.75 24.5833H5.24996C3.96808 24.5833 2.7387 24.0741 1.83228 23.1676C0.925851 22.2612 0.416626 21.0318 0.416626 19.75V5.24996ZM5.24996 2.83329C4.60902 2.83329 3.99433 3.0879 3.54112 3.54112C3.0879 3.99433 2.83329 4.60902 2.83329 5.24996V19.75C2.83329 20.3909 3.0879 21.0056 3.54112 21.4588C3.99433 21.912 4.60902 22.1666 5.24996 22.1666H19.75C20.3909 22.1666 21.0056 21.912 21.4588 21.4588C21.912 21.0056 22.1666 20.3909 22.1666 19.75V5.24996C22.1666 4.60902 21.912 3.99433 21.4588 3.54112C21.0056 3.0879 20.3909 2.83329 19.75 2.83329H5.24996ZM12.5 8.87496C11.5386 8.87496 10.6165 9.25688 9.9367 9.9367C9.25688 10.6165 8.87496 11.5386 8.87496 12.5C8.87496 13.4614 9.25688 14.3834 9.9367 15.0632C10.6165 15.743 11.5386 16.125 12.5 16.125C13.4614 16.125 14.3834 15.743 15.0632 15.0632C15.743 14.3834 16.125 13.4614 16.125 12.5C16.125 11.5386 15.743 10.6165 15.0632 9.9367C14.3834 9.25688 13.4614 8.87496 12.5 8.87496ZM6.45829 12.5C6.45829 10.8976 7.09482 9.36089 8.22786 8.22786C9.36089 7.09482 10.8976 6.45829 12.5 6.45829C14.1023 6.45829 15.639 7.09482 16.7721 8.22786C17.9051 9.36089 18.5416 10.8976 18.5416 12.5C18.5416 14.1023 17.9051 15.639 16.7721 16.7721C15.639 17.9051 14.1023 18.5416 12.5 18.5416C10.8976 18.5416 9.36089 17.9051 8.22786 16.7721C7.09482 15.639 6.45829 14.1023 6.45829 12.5ZM19.1458 7.66663C19.6265 7.66663 20.0875 7.47567 20.4274 7.13576C20.7673 6.79585 20.9583 6.33483 20.9583 5.85413C20.9583 5.37342 20.7673 4.9124 20.4274 4.57249C20.0875 4.23259 19.6265 4.04163 19.1458 4.04163C18.6651 4.04163 18.2041 4.23259 17.8642 4.57249C17.5243 4.9124 17.3333 5.37342 17.3333 5.85413C17.3333 6.33483 17.5243 6.79585 17.8642 7.13576C18.2041 7.47567 18.6651 7.66663 19.1458 7.66663Z" fill="white"/>
</svg>
