<svg width="25" height="25" viewBox="0 0 25 25" fill="none" xmlns="http://www.w3.org/2000/svg">
<path fill-rule="evenodd" clip-rule="evenodd" d="M5.24996 0.416626C3.96808 0.416626 2.7387 0.925851 1.83228 1.83228C0.925851 2.7387 0.416626 3.96808 0.416626 5.24996V19.75C0.416626 21.0318 0.925851 22.2612 1.83228 23.1676C2.7387 24.0741 3.96808 24.5833 5.24996 24.5833H19.75C21.0318 24.5833 22.2612 24.0741 23.1676 23.1676C24.0741 22.2612 24.5833 21.0318 24.5833 19.75V5.24996C24.5833 3.96808 24.0741 2.7387 23.1676 1.83228C22.2612 0.925851 21.0318 0.416626 19.75 0.416626H5.24996ZM2.83329 5.24996C2.83329 4.60902 3.0879 3.99433 3.54112 3.54112C3.99433 3.0879 4.60902 2.83329 5.24996 2.83329H19.75C20.3909 2.83329 21.0056 3.0879 21.4588 3.54112C21.912 3.99433 22.1666 4.60902 22.1666 5.24996V19.75C22.1666 20.3909 21.912 21.0056 21.4588 21.4588C21.0056 21.912 20.3909 22.1666 19.75 22.1666H5.24996C4.60902 22.1666 3.99433 21.912 3.54112 21.4588C3.0879 21.0056 2.83329 20.3909 2.83329 19.75V5.24996ZM8.87496 11.2916C8.87496 10.9712 8.74765 10.6638 8.52105 10.4372C8.29444 10.2106 7.9871 10.0833 7.66663 10.0833C7.34616 10.0833 7.03881 10.2106 6.81221 10.4372C6.5856 10.6638 6.45829 10.9712 6.45829 11.2916V18.5416C6.45829 18.8621 6.5856 19.1694 6.81221 19.396C7.03881 19.6227 7.34616 19.75 7.66663 19.75C7.9871 19.75 8.29444 19.6227 8.52105 19.396C8.74765 19.1694 8.87496 18.8621 8.87496 18.5416V11.2916ZM9.47913 7.06246C9.47913 7.54316 9.28817 8.00418 8.94826 8.34409C8.60835 8.684 8.14733 8.87496 7.66663 8.87496C7.18592 8.87496 6.7249 8.684 6.38499 8.34409C6.04509 8.00418 5.85413 7.54316 5.85413 7.06246C5.85413 6.58175 6.04509 6.12074 6.38499 5.78083C6.7249 5.44092 7.18592 5.24996 7.66663 5.24996C8.14733 5.24996 8.60835 5.44092 8.94826 5.78083C9.28817 6.12074 9.47913 6.58175 9.47913 7.06246ZM12.5 10.0833C12.9108 10.0833 13.2733 10.2887 13.4908 10.6005C14.1136 10.261 14.8115 10.0832 15.5208 10.0833C18.1308 10.0833 19.75 12.4105 19.75 14.3983V18.5416C19.75 18.8621 19.6227 19.1694 19.396 19.396C19.1694 19.6227 18.8621 19.75 18.5416 19.75C18.2212 19.75 17.9138 19.6227 17.6872 19.396C17.4606 19.1694 17.3333 18.8621 17.3333 18.5416V14.397C17.3333 13.469 16.5358 12.4988 15.5208 12.4988C14.8876 12.4988 14.188 12.8431 13.7083 13.6624V18.5416C13.7083 18.8621 13.581 19.1694 13.3544 19.396C13.1278 19.6227 12.8204 19.75 12.5 19.75C12.1795 19.75 11.8721 19.6227 11.6455 19.396C11.4189 19.1694 11.2916 18.8621 11.2916 18.5416V11.2916C11.2916 10.9712 11.4189 10.6638 11.6455 10.4372C11.8721 10.2106 12.1795 10.0833 12.5 10.0833Z" fill="white"/>
</svg>
