<svg id="Layer_1" data-name="Layer 1" xmlns="http://www.w3.org/2000/svg" viewBox="0 0 726.24 726.31"><defs><style>.cls-1{fill:#fff;}.cls-2{fill:#fdfdfd;}.cls-3{fill:#438bc4;}.cls-4{fill:#438cc4;}.cls-5{fill:#231f20;}.cls-6{fill:#98cae7;}.cls-7{fill:#418cc4;}.cls-8{fill:#448cc4;}.cls-9{fill:#99cae7;}.cls-10{fill:#4687ba;}.cls-11{fill:#5597ca;}.cls-12{fill:#fefefe;}.cls-13{fill:#f9f9f9;}.cls-14{fill:#fbfbfb;}.cls-15{fill:#f8f9f9;}.cls-16{fill:#fafafa;}</style></defs><rect class="cls-1" x="109.41" y="113.66" width="507.8" height="499.98" transform="translate(-150.76 363.41) rotate(-45)"/><path class="cls-2" d="M484.55,176.11c0,2-.81,2.25-2.37,2a6.91,6.91,0,0,0-.91,0c-.88-.53-3,1.2-3-1.7,0-2.1.51-3,2.64-2.59a4,4,0,0,0,1.19,0C483.77,173.59,484.55,174.07,484.55,176.11Z" transform="translate(-0.03)"/><path class="cls-2" d="M497.49,176.16c.07,2.12-1,2.13-2.42,2h-.91c-.8-.6-2.84,1.23-3-1.52-.09-2,.31-3.22,2.66-2.77a4,4,0,0,0,1.19,0C496.89,173.59,497.42,174.25,497.49,176.16Z" transform="translate(-0.03)"/><path class="cls-2" d="M512.55,176.16c-.08,1.46-.3,2.25-2,2a15.76,15.76,0,0,0-2.38,0H506.5c-1.48.12-2.5.08-2.46-2s.64-2.52,2.47-2.32a15.22,15.22,0,0,0,3.57,0C512,173.59,512.71,174.2,512.55,176.16Z" transform="translate(-0.03)"/><path class="cls-2" d="M525.55,176c0,2.56-1.41,2.11-2.87,2.11h-.43c-1.42-.09-3.21.71-3-2.12.12-1.84.62-2.42,2.33-2.18a6,6,0,0,0,1.2,0C524.3,173.78,525.55,173.59,525.55,176Z" transform="translate(-0.03)"/><path class="cls-2" d="M528.49,386.48c0,2.32-.74,2.71-2.81,2.68q-13-.15-25.91,0c-2,0-2.52-.41-2.51-2.45.07-32.64,0-65.27.1-97.9,0-2.16-.49-2.84-2.7-2.71-3.5.2-7,0-10.55.08-1.26,0-1.81-.21-1.8-1.66q.12-12.48,0-25c0-1.45.54-1.69,1.82-1.69,14.15,0,28.31.07,42.47,0,2.08,0,1.83,1.11,1.83,2.41v63.34C528.43,344.59,528.39,365.52,528.49,386.48Z" transform="translate(-0.03)"/><path class="cls-2" d="M531.39,228.17c0,10.5-9,19.17-19.82,19.18A19.47,19.47,0,0,1,492,228.18a19.68,19.68,0,0,1,39.36,0Z" transform="translate(-0.03)"/><path class="cls-2" d="M540.55,175.51c0,2.64.06,2.64-3.67,2.64a8.54,8.54,0,0,0-1.43,0c-1.57.24-2.27-.18-2.17-2,.08-1.53.07-2.64,2.11-2.33a14.27,14.27,0,0,0,3.33,0C540,173.74,540.55,174.06,540.55,175.51Z" transform="translate(-0.03)"/><path class="cls-3" d="M363.87.07a6.29,6.29,0,0,0,1.86,2.14q44.82,44.9,89.82,89.71a10.54,10.54,0,0,1,3.36,7c.17,2.22.52,4.43.85,7.14-.89-.85-1.53-1.44-2.15-2.06q-46-46-91.92-92c-1.69-1.7-2.55-1.91-4.38-.08q-88.81,89-177.71,177.9c-1.81,1.81-3.13,2.17-5.43,1-3.85-1.92-3.93-1.75-.93-4.75L361.14,2.15C361.79,1.5,362.7,1,362.93,0h1Z" transform="translate(-0.03)"/><path class="cls-4" d="M0,363c1-.18,1.39-1,2-1.62q13.76-13.71,27.46-27.46a8.46,8.46,0,0,1,2-1.87c-.11,4.37,1.91,8.69-2.41,12.5C22.86,350,17.27,356.19,11.34,362c-1.2,1.18-1.2,1.81,0,3,6.28,6.15,12.42,12.44,18.7,18.59a5.47,5.47,0,0,1,1.91,4.6c-.15,2.19,0,4.4,0,6.72a4.39,4.39,0,0,1-2.24-1.69Q15.81,379.41,2,365.59a5.44,5.44,0,0,0-2-1.69V363Z" transform="translate(-0.03)"/><path class="cls-5" d="M538.69,173.84a14.27,14.27,0,0,1-3.33,0c-2-.31-2,.8-2.11,2.33-.1,1.8.6,2.22,2.17,2a8.54,8.54,0,0,1,1.43,0c3.73,0,3.63,0,3.67-2.64C540.55,174.06,540,173.74,538.69,173.84Zm-27.14,34.55A19.71,19.71,0,0,0,492,228.18a19.47,19.47,0,0,0,19.53,19.17c10.84,0,19.8-8.68,19.82-19.18a19.85,19.85,0,0,0-19.83-19.78Zm16.88,115.2V260.25c0-1.3.25-2.42-1.83-2.41-14.16.09-28.32.06-42.47,0-1.28,0-1.83.24-1.82,1.69q.09,12.47,0,25c0,1.45.54,1.68,1.8,1.66,3.52-.08,7,.12,10.55-.08,2.21-.13,2.71.55,2.7,2.71-.07,32.63,0,65.26-.1,97.9,0,2,.54,2.48,2.51,2.45q12.94-.17,25.91,0c2.07,0,2.83-.36,2.81-2.68-.1-21-.06-41.9-.06-62.9ZM482,173.87a4,4,0,0,1-1.19,0c-2.13-.39-2.68.49-2.64,2.59.06,2.9,2.15,1.17,3,1.7a6.91,6.91,0,0,1,.91,0c1.56.2,2.38,0,2.37-2S483.77,173.59,482,173.87Zm13,0a4,4,0,0,1-1.19,0c-2.35-.45-2.75.73-2.66,2.77.11,2.75,2.15.92,3,1.52h.91c1.46.13,2.49.12,2.42-2-.11-1.91-.64-2.57-2.47-2.29Zm15.1,0a15.22,15.22,0,0,1-3.57,0c-1.83-.2-2.42.37-2.47,2.32s1,2.13,2.46,2h1.67a15.76,15.76,0,0,1,2.38,0c1.66.24,1.88-.55,2-2,.09-2-.62-2.6-2.46-2.36Zm12.58,0a6,6,0,0,1-1.2,0c-1.71-.24-2.21.34-2.33,2.18-.17,2.83,1.62,2,3,2.12h.48c1.46,0,2.9.45,2.87-2.11s-1.25-2.28-2.81-2.2Z" transform="translate(-0.03)"/><path class="cls-5" d="M552.55,254c-2,0-4.52.87-5.77-.37s-.37-3.8-.38-5.77q-.1-18-.07-36c0-.83-.38-1.75.32-2.5l.15-.08c2.51-.57,5.06-.14,7.59-.23a5.85,5.85,0,0,0,4.09-3.67c1.22-2.85,1-5.88,1.15-8.87h0a1.82,1.82,0,0,1-.3-1.34c-.42-3.82-2.15-5.6-6-6.11a8.3,8.3,0,0,1-1.41,0c-5.89-.15-5.89-.16-5.5-6.13,0-4.38-.12-8.76,0-13.13,0-1.5-.41-1.87-1.87-1.85-4.37.08-8.75,0-13.13,0h-10.1c-3.44,0-6.87,0-10.3.1-1.42,0-1.73-.46-1.71-1.77.07-4.48,0-8.95,0-13.43V101.27c0-1.7-.27-2.44-2.18-2.28a53.91,53.91,0,0,1-7.19,0c-1.56-.09-1.93.44-1.71,1.9.61,4,1.11,8.07,1.66,12.1q3.5,25.86,7,51.72c.45,3.31.38,3.32-3,3.23-10.64,0-21.27.11-31.91,0-2.19,0-2.66.65-2.6,2.7.14,5.35,0,10.71.08,16.07,0,1.66-.47,2.35-2.16,2.17a19.23,19.23,0,0,0-2.15.11c-3.72,0-7.1,1-8.2,4.85-1.25,4.36-1.55,8.87,1.79,12.7,1.82,2.09,4.22,2.68,6.91,2.67,4.35,0,3.76-.59,3.77,3.83q0,19.2.06,38.39c0,2.18-.63,2.87-2.68,2.57a13.74,13.74,0,0,0-2.4,0c-3.57.09-6.28,1.73-7.39,5.08a15.15,15.15,0,0,0,1.54,13.51A7.49,7.49,0,0,0,466.4,276c2.31-.32,3.09.34,3.08,2.9q-.14,74.25-.06,148.51v2.15c-.66.41-.91-.16-1.21-.45q-18-17.65-35.9-35.34a11.46,11.46,0,0,1-.88-1.1l-5.4-4.84a95.83,95.83,0,0,0,4,10.76c.64,1.47.58,2.29-1,3.24a114.58,114.58,0,0,1-16.9,8.93c-23.66,9.61-48.22,12.11-73.35,8.37C315,415.62,294.65,405.22,278.65,387a3.13,3.13,0,0,0-2.72-1H237.77c-1.79,0-2.42.34-2.39,2.3.12,8.4,0,16.8.06,25.2,0,1.2.09,2.11-1.67,2.1q-27.22-.09-54.47,0c-1.47,0-1.7-.6-1.67-1.85.08-2.56-.08-5.13.07-7.68.08-1.56-.48-1.86-1.9-1.81-3,.1-6.08,0-9.11.06-1.53.06-2.07-.3-2-2,.11-4.79,0-9.59.08-14.39,0-1.59-.44-2-2-2q-29,.07-58.07,0c-1.68,0-2.12.41-2.1,2.1.1,8,0,16,0,24,0,3.48,0,3.48-3.35,3.48H88.93l-.28.63c.59.5,1.22,1,1.77,1.5L133.55,460l52.6,51.63,54.92,54L294,617.56q34.83,34.22,69.6,68.49c1.43,1.41,2.11,1.62,3.66.07q34.56-34.68,69.26-69.2,53.49-53.42,107-106.78a9,9,0,0,0,2.93-7.11q-.13-111.7-.07-223.42a11.37,11.37,0,0,0,0-1.43c-.21-1.5.26-2.15,1.92-2,2.07.14,4.15,0,6.23,0a7.11,7.11,0,0,0,3.67-3.91,22.13,22.13,0,0,0,.62-13.65C558,255.29,555.89,254.07,552.55,254Zm-33.31-78c.12-1.84.62-2.42,2.33-2.18a6,6,0,0,0,1.2,0c1.56-.08,2.83-.27,2.86,2.18s-1.41,2.11-2.87,2.11h-.51c-1.42-.08-3.21.72-3-2.11Zm-12.69-2.2a15.22,15.22,0,0,0,3.57,0c1.84-.2,2.55.37,2.43,2.33-.08,1.46-.3,2.25-2,2a15.76,15.76,0,0,0-2.38,0H506.5c-1.48.12-2.5.08-2.46-2s.72-2.54,2.51-2.3Zm-12.72,0a4,4,0,0,0,1.19,0c1.83-.3,2.36.38,2.43,2.29.07,2.12-1,2.13-2.42,2h-.91c-.8-.6-2.84,1.23-3-1.52,0-2,.43-3.18,2.75-2.73Zm-12.62,4.29c-.88-.53-3,1.2-3-1.7,0-2.1.51-3,2.64-2.59a4,4,0,0,0,1.19,0c1.72-.23,2.47.2,2.48,2.24s-.81,2.25-2.37,2a6.86,6.86,0,0,0-.9.09Zm44.43,211q-13-.15-25.91,0c-2,0-2.52-.41-2.51-2.45.07-32.64,0-65.27.1-97.9,0-2.16-.49-2.84-2.7-2.71-3.5.2-7,0-10.55.08-1.26,0-1.81-.21-1.8-1.66q.12-12.48,0-25c0-1.45.54-1.69,1.82-1.69,14.15,0,28.31.07,42.47,0,2.08,0,1.83,1.11,1.83,2.41v63.34c0,21,0,41.91.06,62.87.1,2.39-.7,2.78-2.77,2.75ZM511.55,247.35A19.46,19.46,0,0,1,492,228.18a19.68,19.68,0,1,1,39.36,0v0h0C531.37,238.67,522.41,247.34,511.55,247.35Zm25.28-69.2a8.54,8.54,0,0,0-1.43,0c-1.57.24-2.27-.18-2.17-2,.08-1.53.07-2.64,2.11-2.33a14.27,14.27,0,0,0,3.33,0c1.27-.1,1.85.22,1.83,1.67,0,2.66,0,2.66-3.65,2.66Z" transform="translate(-0.03)"/><path class="cls-5" d="M484.55,176.11c0,2-.81,2.25-2.37,2a6.91,6.91,0,0,0-.91,0c-.88-.53-3,1.2-3-1.7,0-2.1.51-3,2.64-2.59a4,4,0,0,0,1.19,0C483.77,173.59,484.55,174.07,484.55,176.11Z" transform="translate(-0.03)"/><path class="cls-5" d="M497.49,176.16c.07,2.12-1,2.13-2.42,2h-.91c-.8-.6-2.84,1.23-3-1.52-.09-2,.31-3.22,2.66-2.77a4,4,0,0,0,1.19,0C496.89,173.59,497.42,174.25,497.49,176.16Z" transform="translate(-0.03)"/><path class="cls-5" d="M512.55,176.16c-.08,1.46-.3,2.25-2,2a15.76,15.76,0,0,0-2.38,0H506.5c-1.48.12-2.5.08-2.46-2s.64-2.52,2.47-2.32a15.22,15.22,0,0,0,3.57,0C512,173.59,512.71,174.2,512.55,176.16Z" transform="translate(-0.03)"/><path class="cls-5" d="M525.55,176c0,2.56-1.41,2.11-2.87,2.11h-.43c-1.42-.09-3.21.71-3-2.12.12-1.84.62-2.42,2.33-2.18a6,6,0,0,0,1.2,0C524.3,173.78,525.55,173.59,525.55,176Z" transform="translate(-0.03)"/><path class="cls-5" d="M528.49,386.48c0,2.32-.74,2.71-2.81,2.68q-13-.15-25.91,0c-2,0-2.52-.41-2.51-2.45.07-32.64,0-65.27.1-97.9,0-2.16-.49-2.84-2.7-2.71-3.5.2-7,0-10.55.08-1.26,0-1.81-.21-1.8-1.66q.12-12.48,0-25c0-1.45.54-1.69,1.82-1.69,14.15,0,28.31.07,42.47,0,2.08,0,1.83,1.11,1.83,2.41v63.34C528.43,344.59,528.39,365.52,528.49,386.48Z" transform="translate(-0.03)"/><path class="cls-5" d="M531.39,228.17c0,10.5-9,19.17-19.82,19.18A19.47,19.47,0,0,1,492,228.18a19.68,19.68,0,0,1,39.36,0Z" transform="translate(-0.03)"/><path class="cls-5" d="M540.55,175.51c0,2.64.06,2.64-3.67,2.64a8.54,8.54,0,0,0-1.43,0c-1.57.24-2.27-.18-2.17-2,.08-1.53.07-2.64,2.11-2.33a14.27,14.27,0,0,0,3.33,0C540,173.74,540.55,174.06,540.55,175.51Z" transform="translate(-0.03)"/><path class="cls-5" d="M484.55,176.11c0,2-.81,2.25-2.37,2a6.91,6.91,0,0,0-.91,0c-.88-.53-3,1.2-3-1.7,0-2.1.51-3,2.64-2.59a4,4,0,0,0,1.19,0C483.77,173.59,484.55,174.07,484.55,176.11Z" transform="translate(-0.03)"/><path class="cls-5" d="M497.49,176.16c.07,2.12-1,2.13-2.42,2h-.91c-.8-.6-2.84,1.23-3-1.52-.09-2,.31-3.22,2.66-2.77a4,4,0,0,0,1.19,0C496.89,173.59,497.42,174.25,497.49,176.16Z" transform="translate(-0.03)"/><path class="cls-5" d="M503.87,168c-10.64,0-21.27.11-31.91,0-2.19,0-2.66.65-2.6,2.7.14,5.35,0,10.71.08,16.07,0,1.66-.47,2.35-2.16,2.17a19.23,19.23,0,0,0-2.15.11c-3.72,0-7.1,1-8.2,4.85-1.25,4.36-1.55,8.87,1.79,12.7,1.82,2.09,4.22,2.68,6.91,2.67,4.35,0,3.76-.59,3.77,3.83q0,19.2.06,38.39c0,2.18-.63,2.87-2.68,2.57a13.74,13.74,0,0,0-2.4,0c-3.57.09-6.28,1.73-7.39,5.08a15.13,15.13,0,0,0,1.56,13.5,7.49,7.49,0,0,0,7.85,3.44c2.31-.32,3.09.34,3.08,2.9q-.14,74.25-.06,148.51v2.15c-.66.41-.91-.16-1.21-.45q-18-17.65-35.9-35.34a11.46,11.46,0,0,1-.88-1.1c1.25.08,1.94,1,2.72,1.81,3.92,3.88,7.87,7.74,11.7,11.71,7,7.25,14.64,13.84,21.62,21.11a1.34,1.34,0,0,0,1,.62c.55-.59.28-1.34.28-2V280.35c0-3.47,0-3.61-3.43-3.54a8.08,8.08,0,0,1-7.55-4.22A15.61,15.61,0,0,1,456.22,259c1.21-3.56,4.3-5.63,8.33-5.71s4.21.31,4.2-4.26V213.52c0-3.31,0-3.31-3.31-3.48-6.42-.33-10.63-5.2-10-11.59.11-1.11.26-2.23.43-3.33a7.7,7.7,0,0,1,6.91-6.61c1.19-.12,2.38-.34,3.57-.4,1.88-.11,2.41-1.11,2.39-2.83V171.13c0-3.26.53-3.76,3.79-3.78h28.3A5.64,5.64,0,0,1,503.87,168Z" transform="translate(-0.03)"/><path class="cls-5" d="M512.55,176.16c-.08,1.46-.3,2.25-2,2a15.76,15.76,0,0,0-2.38,0H506.5c-1.48.12-2.5.08-2.46-2s.64-2.52,2.47-2.32a15.22,15.22,0,0,0,3.57,0C512,173.59,512.71,174.2,512.55,176.16Z" transform="translate(-0.03)"/><path class="cls-5" d="M525.55,176c0,2.56-1.41,2.11-2.87,2.11h-.43c-1.42-.09-3.21.71-3-2.12.12-1.84.62-2.42,2.33-2.18a6,6,0,0,0,1.2,0C524.3,173.78,525.55,173.59,525.55,176Z" transform="translate(-0.03)"/><path class="cls-5" d="M528.49,386.48c0,2.32-.74,2.71-2.81,2.68q-13-.15-25.91,0c-2,0-2.52-.41-2.51-2.45.07-32.64,0-65.27.1-97.9,0-2.16-.49-2.84-2.7-2.71-3.5.2-7,0-10.55.08-1.26,0-1.81-.21-1.8-1.66q.12-12.48,0-25c0-1.45.54-1.69,1.82-1.69,14.15,0,28.31.07,42.47,0,2.08,0,1.83,1.11,1.83,2.41v63.34C528.43,344.59,528.39,365.52,528.49,386.48Z" transform="translate(-0.03)"/><path class="cls-5" d="M531.39,167.91h-10.1A18.44,18.44,0,0,1,531.39,167.91Z" transform="translate(-0.03)"/><path class="cls-5" d="M531.39,228.17c0,10.5-9,19.17-19.82,19.18A19.47,19.47,0,0,1,492,228.18a19.68,19.68,0,0,1,39.36,0Z" transform="translate(-0.03)"/><path class="cls-5" d="M540.55,175.51c0,2.64.06,2.64-3.67,2.64a8.54,8.54,0,0,0-1.43,0c-1.57.24-2.27-.18-2.17-2,.08-1.53.07-2.64,2.11-2.33a14.27,14.27,0,0,0,3.33,0C540,173.74,540.55,174.06,540.55,175.51Z" transform="translate(-0.03)"/><path class="cls-5" d="M553.33,189a8.3,8.3,0,0,1-1.41,0c-5.89-.15-5.89-.16-5.5-6.13a7.83,7.83,0,0,1,.56,3.28c0,1.44.54,2.34,2.09,2.25S551.9,188.93,553.33,189Z" transform="translate(-0.03)"/><path class="cls-5" d="M554.36,209c-2.53.27-5.07-.14-7.59.23C549.28,208.68,551.83,209.11,554.36,209Z" transform="translate(-0.03)"/><path class="cls-5" d="M558.45,205.35c1.22-2.85,1-5.88,1.15-8.87C560.89,199,560.31,203.45,558.45,205.35Z" transform="translate(-0.03)"/><path class="cls-5" d="M558.55,272.76c-.89,1.74-2,3.06-4.09,3.25a7.11,7.11,0,0,0,3.67-3.91,22.13,22.13,0,0,0,.62-13.65c-.79-3.16-2.89-4.38-6.26-4.48-2,0-4.52.87-5.77-.37s-.37-3.8-.38-5.77q-.11-18-.07-36c0-.83-.38-1.75.32-2.5-.08,1.25-.11,2.5-.1,3.74,0,.92,0,1.84.07,2.76.1,2.53.27,5.06.34,7.59.25,8.63.07,17.27.08,25.91,0,3.9,0,3.9,3.8,3.92,6.6.05,9.13,2.57,9.15,9.16C560,265.92,560.28,269.46,558.55,272.76Z" transform="translate(-0.03)"/><path class="cls-5" d="M79.93,401.63c-6.6-.05-13.3-.08-19.9-.08s-13.3,0-19.9.08c-2.58,0-5.52-.62-5.52-5.41.14-28.88.13-58.13.13-86.42V296.26q0-49.92-.05-99.83c0-1.34,0-5.41,5-5.41h.52c3.19.08,6.5.11,10.09.11s7.31,0,11.52-.11h.44a6.18,6.18,0,0,1,5.45,3.24c1.6,2.48,3.29,5,4.91,7.4,2.09,3.1,4.25,6.3,6.29,9.53l.22.32a4.78,4.78,0,0,0,.47-.21c10-5.21,20.84-10.73,31.75-15.8a82.18,82.18,0,0,1,35.32-7.58,105,105,0,0,1,10.64.56c14.72,1.52,27.32,7,37.43,16.34,9.92,9.12,16.59,21.13,20.38,36.74a110.85,110.85,0,0,1,3,26q0,64.43.06,128.86c0,2.2-.51,5.12-5,5.12H213c-6.68-.06-13.46-.09-20.14-.09s-13.46,0-20.14.09a5.35,5.35,0,0,1-4-1.28,5.26,5.26,0,0,1-1.26-3.92c.07-43.23.07-87.07,0-130.3,0-8.61-1.58-15.9-4.82-22.28-5-9.93-13.52-15.33-25.9-16.51-1.77-.17-3.56-.26-5.3-.26-13.44,0-26.1,5-38.72,15.38-.67.55-1.36,1.07-2.06,1.59-2.3,1.74-4.48,3.38-5.37,5.46-.64,1.46-.49,3.58-.33,5.82.07,1,.15,2.12.15,3.2v138c0,2.24-.53,5.22-5.08,5.22Z" transform="translate(-0.03)"/><path class="cls-1" d="M146.63,190.42A101.14,101.14,0,0,1,157,191c13.65,1.41,25.84,6.33,36,15.69,10.47,9.62,16.33,21.86,19.64,35.49a107.81,107.81,0,0,1,2.9,25.37q0,64.44.06,128.87c0,2-.37,2.62-2.45,2.62h-.1q-10.08-.09-20.16-.09t-20.16.09c-2.13,0-2.76-.45-2.75-2.69q.1-65.16,0-130.31c0-8.16-1.36-16.07-5.09-23.41-5.79-11.39-15.53-16.69-27.89-17.87-1.88-.18-3.73-.27-5.54-.27-15.26,0-28.4,6.18-40.31,15.95-3,2.43-6.68,4.58-8.14,8-1.23,2.83-.38,6.6-.38,10v138c0,2.12-.47,2.72-2.58,2.72H80q-10-.08-19.92-.08t-19.92.08c-2.31,0-3-.4-3-2.91.16-33.4.13-66.68.13-100s0-66.56-.05-99.83c0-2.16.46-2.91,2.46-2.91h.41c3.4.08,6.8.11,10.2.11q5.82,0,11.64-.11h.32a3.7,3.7,0,0,1,3.29,2c3.69,5.7,7.61,11.25,11.25,17,.7,1.11,1.31,1.58,2.08,1.58a4.27,4.27,0,0,0,1.84-.58c10.47-5.43,21-10.8,31.68-15.76a80.18,80.18,0,0,1,34.27-7.35m0-5a85.79,85.79,0,0,0-36.37,7.81c-10.38,4.82-20.66,10.05-30.29,15-1.75-2.72-3.55-5.4-5.31-8-1.6-2.39-3.26-4.85-4.84-7.29a8.66,8.66,0,0,0-7.6-4.46h-.54c-4.18.08-7.91.11-11.42.11s-6.84,0-10-.11h-.57c-2.24,0-7.46.77-7.46,7.91,0,33.11.05,66.69.05,99.83v13.61c0,28.27,0,57.49-.13,86.33,0,3.63,1.39,7.93,8,7.93s13.32-.08,19.92-.08,13.29,0,19.88.08h.15c4.82,0,7.58-2.81,7.58-7.72v-138c0-1.16-.08-2.29-.16-3.37-.12-1.76-.26-3.75.13-4.64.64-1.49,2.55-2.94,4.59-4.47.69-.53,1.4-1.06,2.11-1.63,12.18-10,24.32-14.84,37.16-14.84,1.66,0,3.37.08,5.06.25,11.46,1.09,19.28,6,23.91,15.16,3.06,6,4.55,12.93,4.55,21.14.07,43.23.07,87.07,0,130.3a7,7,0,0,0,7.75,7.7c6.72-.06,13.49-.09,20.16-.09s13.44,0,20.12.09h.14c2.24,0,7.45-.74,7.45-7.62,0-42.8-.06-86.15-.06-128.87a113.47,113.47,0,0,0-3-26.52c-3.92-16.13-10.83-28.56-21.13-38-10.51-9.69-23.59-15.41-38.87-17a104.12,104.12,0,0,0-10.89-.58Z" transform="translate(-0.03)"/><path class="cls-5" d="M363.25,302.22H295.34c-3.14,0-3.21,0-3,3.11.91,13,3.23,25.66,9.53,37.27,8.72,16,22.62,24.47,40.35,27,19.4,2.81,37.18-2,53.92-11.66,3.67-2.11,3.71-2,5.28,1.89,3.51,8.73,7,17.47,10.6,26.14.66,1.58.31,2.15-1,2.92-14,8.12-29.08,12.53-45,14.31-14.31,1.59-28.57,1.51-42.68-1.65-32.54-7.29-54.82-26.69-67.39-57.42-7.46-18.25-9.54-37.39-8.58-56.87,1.1-22.15,7.73-42.51,21.77-60,15.07-18.75,34.83-29.6,58.5-33.34,18.06-2.85,35.9-1.88,53.11,4.59,26.68,10,42.51,29.76,49.87,56.81,2.62,9.62,3.47,19.47,3.61,29.41.07,5,0,10.08.22,15.11.07,1.88-.55,2.21-2.28,2.21q-34.43-.09-68.86,0v.16Z" transform="translate(-0.03)"/><path class="cls-6" d="M356.26,39.09V184.68c0,3.26,0,3.09-3.16,2.78a91.61,91.61,0,0,0-15.09-.07,98.06,98.06,0,0,0-16.09,2.2c-1.25.3-1.81-.23-1.71-1.51V122.86l-.5-.32L233.78,214h39.9c-2.47,2.75-4.64,5.12-6.76,7.53a92.31,92.31,0,0,0-16,26c-.82,2-1.77,2.78-4,2.66q-6-.3-12,0c-2.11.1-2.92-.69-3.43-2.63a75.81,75.81,0,0,0-13.33-27.36A61.15,61.15,0,0,0,199.55,204c-1.8-1-2.14-1.68-.55-3.28q14.31-14.49,28.55-29.16,15.9-16.31,31.73-32.68l30.54-31.5,31.87-32.82,30.56-31.48C353.55,41.77,354.4,40,356.26,39.09Z" transform="translate(-0.03)"/><path class="cls-7" d="M503.87,168c-10.64,0-21.27.11-31.91,0-2.19,0-2.66.65-2.6,2.7.14,5.35,0,10.71.08,16.07,0,1.66-.47,2.35-2.16,2.17a19.23,19.23,0,0,0-2.15.11c-3.72,0-7.1,1-8.2,4.85-1.25,4.36-1.55,8.87,1.79,12.7,1.82,2.09,4.22,2.68,6.91,2.67,4.35,0,3.76-.59,3.77,3.83q0,19.2.06,38.39c0,2.18-.63,2.87-2.68,2.57a13.74,13.74,0,0,0-2.4,0c-3.57.09-6.28,1.73-7.39,5.08a15.13,15.13,0,0,0,1.56,13.5,7.49,7.49,0,0,0,7.85,3.44c2.31-.32,3.09.34,3.08,2.9q-.14,74.25-.06,148.51v2.15c-.66.41-.91-.16-1.21-.45q-18-17.65-35.9-35.34a11.46,11.46,0,0,1-.88-1.1q0-36-.08-72c0-1.6.5-2,2-2,4.79,0,9.59-.13,14.38-.13,1.81,0,2.82-.62,2.86-2.54.49-22.73.79-45.42-8.85-66.83a101.85,101.85,0,0,0-10.19-17.76,12.31,12.31,0,0,1-.78-4.69c-.15-11.66,1-23.3.56-35a4.47,4.47,0,0,0-.26-2.58c-1.19,0-2.39-.08-3.59-.09a8.8,8.8,0,0,1-9-8.57,46.33,46.33,0,0,1,0-5,7.5,7.5,0,0,1,7.26-7.45c1.75-.11,3.51-.08,5.27-.11.67-.67.33-1.52.34-2.28V150.08c0-2.57.23-2.86,2.85-2.92,3.68-.09,7.36,0,11,0h16.56a5.43,5.43,0,0,1,3.46.7l1,.14c1.93.28,2.75-.07,2.41-2.46-2.16-14.93-4.12-29.89-6.15-44.84-.69-5.14-1.34-10.29-2.08-15.42-.24-1.65.17-2.29,1.94-2.17a47,47,0,0,0,6.71,0c2-.16,2.36.58,2.36,2.41-.07,19.91,0,39.82-.1,59.73,0,2.41.71,2.85,2.94,2.81,8.47-.14,16.93,0,25.4-.07,1.39,0,1.43.74,1.6,1.79C502.2,155.79,502.55,161.94,503.87,168Z" transform="translate(-0.03)"/><path class="cls-3" d="M725,365.52q-179.86,179.73-359.6,359.6c-1.69,1.69-2.46,1.51-4-.07Q207.89,571.41,54.28,417.85a5.08,5.08,0,0,1-1.73-2.26h8.87a2,2,0,0,1,1.41.82l1.7,1.7L361.17,714.74c2.27,2.28,2.27,2.28,4.48.08q174.6-174.6,349.28-349.17c1.82-1.83,1.64-2.69-.07-4.4q-77-76.89-154-153.87c-.75-.75-1.34-1.71-2.45-2,1.22-2.85,1-5.88,1.15-8.87h0c.93.21,1.38,1,2,1.64Q643.33,279.8,725,361.47C726.71,363.12,726.66,363.9,725,365.52Z" transform="translate(-0.03)"/><path class="cls-6" d="M465.22,147.83c-10.28,0-20.56.15-30.84,0-2.31,0-3,.58-2.89,2.89.18,4.93.08,9.88,0,14.82,0,.79.48,1.78-.57,2.36l.12-18a2.84,2.84,0,0,0-.87-2.14q-13.32-13.57-26.62-27.22a3.49,3.49,0,0,0-.7-.34v83.69c-3-1.8-5.61-3.45-8.31-4.95a86.16,86.16,0,0,0-21.78-8.5c-1.5-.36-2.21-.87-2.21-2.66q.09-73.42.05-146.84a8.18,8.18,0,0,1,.06-1.21c1.1,0,1.51.94,2.08,1.52C383,51.78,393.47,62.18,403.63,72.81c6.41,6.71,13,13.23,19.47,19.87l39,40a7.08,7.08,0,0,1,1.76,4.28C464.47,140.59,465,144.18,465.22,147.83Z" transform="translate(-0.03)"/><path class="cls-6" d="M681.78,358.22H637.5a4.49,4.49,0,0,1-3.58-1.48c-8-8.26-16.19-16.35-24.09-24.72-6.53-6.92-13.34-13.56-20-20.37q-16.59-17.06-33.28-34.15a3.73,3.73,0,0,0-2.11-1.49,7.11,7.11,0,0,0,3.67-3.91,22.13,22.13,0,0,0,.62-13.65c-.79-3.16-2.89-4.38-6.26-4.48-2,0-4.52.87-5.77-.37s-.37-3.8-.38-5.77q-.11-18-.07-36c0-.83-.38-1.75.32-2.5a11.92,11.92,0,0,1,.07,2.39c-.08.46-.13.91-.17,1.35a13.41,13.41,0,0,0,.07,2.76c.46,3.6,2.46,6.52,5.51,9.42,9.33,8.85,18.23,18.16,27.09,27.49,6.39,6.72,13,13.22,19.46,19.86q19.57,20.08,39.18,40.14l38.66,39.64C678.19,354.13,679.77,356,681.78,358.22Z" transform="translate(-0.03)"/><path class="cls-6" d="M102.72,350v-2.59c0-14.56.08-29.12-.07-43.67a8.4,8.4,0,0,1,2.73-6.51q5.69-5.69,11.3-11.43,16.56-17,33.09-34c2.45-2.52,4.9-5,7.24-7.66,1.36-1.52,2.13-1.14,3,.47a41.78,41.78,0,0,1,4.63,17.92c.27,7.67,0,15.36.12,23a4.1,4.1,0,0,1-1.37,3.13q-12.87,13.06-25.68,26.21-16.46,16.78-32.82,33.68a15.2,15.2,0,0,0-1.39,2Z" transform="translate(-0.03)"/><path class="cls-6" d="M356.26,341.12c0,6.31-.14,12.63.07,18.93.09,2.57-.79,3.07-3.11,3-4.23-.18-8.47-.22-12.7,0-6.57.33-12.06-2.47-17.51-5.55a2.58,2.58,0,0,1-1.42-2.53V320.7c0-1.47.48-1.92,1.93-1.91q15.35.07,30.68,0c1.75,0,2.13.64,2.11,2.23C356.22,327.7,356.26,334.41,356.26,341.12Z" transform="translate(-0.03)"/><path class="cls-4" d="M92.61,411C87.11,411,81.4,411,75.15,411s-12.81,0-20.88.08h0c-1.22,0-4.82,0-4.89-4.65A4.53,4.53,0,0,1,50.53,403a4.88,4.88,0,0,1,3.66-1.23h.12c4.49,0,9,0,13.48,0,5.83,0,11.67,0,17.52.05h.22v-.25c-.07-49.22-.1-99.11-.1-148.29a8.48,8.48,0,0,1,3.11-6.8c6.58-5.91,15.61-13.13,27.19-16.71a54.36,54.36,0,0,1,16-2.55,45.68,45.68,0,0,1,15.85,2.84,7.08,7.08,0,0,1,3.6,2.38l3.51,4.37-5.59-.3c-1.05-.06-2.11-.09-3.15-.09a59.58,59.58,0,0,0-8.44.61c-10.49,1.48-20.25,6.08-30.73,14.48-1.55,1.24-3,2.58-4.56,4-1.06,1-2.16,2-3.29,3a2.41,2.41,0,0,0-.88,2v.16q.06,72.45.09,144.92c0,3.8-1.7,5.5-5.5,5.5Z" transform="translate(-0.03)"/><path class="cls-1" d="M131.72,229.71a42.74,42.74,0,0,1,15.08,2.72,4.62,4.62,0,0,1,2.42,1.57c-1.09-.06-2.19-.09-3.28-.09a60.38,60.38,0,0,0-8.8.64c-12.17,1.71-22.49,7.43-31.93,15-2.74,2.19-5.23,4.69-7.92,7a4.87,4.87,0,0,0-1.74,4.06q.06,72.47.09,144.92c0,2.47-.65,3-3,3q-8.74-.09-17.49-.08-10.45,0-20.9.08c-1.69,0-2.36-.29-2.39-2.19s.82-2.11,2.33-2.11h.1c10.32,0,20.64,0,31,.08,2.21,0,2.75-.58,2.74-2.76q-.11-74.15-.1-148.28a6,6,0,0,1,2.23-4.9c7.8-7,16.19-13.09,26.31-16.22a51.57,51.57,0,0,1,15.25-2.44m0-5v0h0A57,57,0,0,0,115,227.37c-12,3.72-21.31,11.13-28.09,17.2a11.06,11.06,0,0,0-4,8.78c0,48.43,0,97.52.1,145.94-5.11,0-10.26,0-15.27,0-4.48,0-9,0-13.45,0h-.12a7.36,7.36,0,0,0-5.44,2A7.91,7.91,0,0,0,49.28,412a7.64,7.64,0,0,0,5,1.5c8.09-.06,14.72-.08,20.9-.08s11.94,0,17.44.08h0c5.16,0,8-2.84,8-8q0-72.46-.09-144.92v-.26h0c1.16-1,2.27-2,3.35-3,1.51-1.39,2.94-2.69,4.43-3.88,10.12-8.12,19.49-12.55,29.51-14a56.6,56.6,0,0,1,8.1-.59c1,0,2,0,3,.08l11.19.61-7-8.74a9.59,9.59,0,0,0-4.76-3.19,48.18,48.18,0,0,0-16.63-3ZM83,401.91Z" transform="translate(-0.03)"/><path class="cls-4" d="M213.36,225.59a62.66,62.66,0,0,1,8.76,15.8,91.75,91.75,0,0,1,6.26,33.49c.12,43.6,0,87.19.11,130.79,0,2.35-.63,2.89-2.92,2.87-12.8-.12-25.6-.05-38.4-.06a2.45,2.45,0,0,1-2.34-3.72c.5-.95,1.43-.51,2.15-.51,10.4,0,20.8-.1,31.2,0,2.29,0,2.69-.7,2.69-2.8q-.09-67.43-.06-134.87a103.26,103.26,0,0,0-7.26-39.27A1.79,1.79,0,0,1,213.36,225.59Z" transform="translate(-0.03)"/><path class="cls-6" d="M164.7,308.64V351.9c0,6.32,0,6.32-6.38,6.32h-42Z" transform="translate(-0.03)"/><path class="cls-6" d="M370.55,338.39c0-5.83.06-11.66,0-17.49,0-1.71.55-2.15,2.2-2.14q13.9.11,27.8,0c1.87,0,2.25.63,2.24,2.35-.08,8.39-.06,16.78,0,25.16a2.61,2.61,0,0,1-1.6,2.79,68.73,68.73,0,0,0-9,5c-6.09,4.31-12.91,4.46-19.92,4.17-1.65-.07-1.74-.88-1.73-2.13C370.55,350.22,370.55,344.3,370.55,338.39Z" transform="translate(-0.03)"/><path class="cls-8" d="M304.65,335.78a67.9,67.9,0,0,1-5.58-18.7c-.44-2.6-.67-5.23-1-7.83-.19-1.28.3-1.78,1.56-1.68h120c5.91,0,11.83-.24,17.74-.26,1.4,0,1.92-.34,2-1.82.64-7.27.17-14.54.08-21.81a123.45,123.45,0,0,0-3.07-27.09,11.5,11.5,0,0,1,0-1.66,75.9,75.9,0,0,1,4.72,15.16,121.34,121.34,0,0,1,2.54,25.71q0,7,.13,13.91c0,1.46-.42,2.07-1.9,1.89a15.38,15.38,0,0,0-1.92,0H304.36c-2.3,0-2.86.42-2.67,2.88A161,161,0,0,0,304.65,335.78Z" transform="translate(-0.03)"/><path class="cls-4" d="M419,390.49c.8,1.93,1.52,3.88,2.41,5.73.63,1.31.25,1.91-.94,2.59a107,107,0,0,1-32.62,12.1,142.77,142.77,0,0,1-39.08,2.39,100.63,100.63,0,0,1-30.22-6.85C353.85,413,387.55,409.79,419,390.49Z" transform="translate(-0.03)"/><path class="cls-6" d="M235.64,343.52c0-4.07.07-8.15,0-12.22,0-1.77.31-2.69,2.34-2.49,2.45.24,5.54-.94,7.2.45,1.5,1.26,1.44,4.35,2.13,6.61a114.83,114.83,0,0,0,8.24,20.33c.77,1.45.87,2.07-1.1,2q-8.38-.12-16.77,0c-1.54,0-2.12-.44-2.08-2C235.7,352,235.64,347.75,235.64,343.52Z" transform="translate(-0.03)"/><path class="cls-4" d="M500.27,146.78,493.56,140c-5.65-5.66-11.26-11.35-17-16.93a5.24,5.24,0,0,1-1.78-4.41c.13-2.23,0-4.47,0-6.76,1.1,0,1.49.92,2.06,1.48,6.92,6.87,13.78,13.81,20.73,20.65a6.79,6.79,0,0,1,2.14,4.6c.19,2.62.66,5.21,1,7.81Z" transform="translate(-0.03)"/><path class="cls-9" d="M235.64,283.76c.25-5.24-.4-11.28-.6-17.34,0-1.09.1-1.44,1.16-1.43,2.39,0,4.79.05,7.18,0,1.41,0,1.63.7,1.39,1.82a109.53,109.53,0,0,0-2.83,26.27c0,1.21-.37,1.65-1.63,1.71-4.66.23-4.65.28-4.65-4.45C235.64,288.42,235.64,286.5,235.64,283.76Z" transform="translate(-0.03)"/><path class="cls-6" d="M431,189.21c.92.76.47,1.79.48,2.69v39.55c-5.34-7.53-12.39-13.37-19.48-19.16l.27-.53c5.39,0,10.79-.11,16.18.06,2.19.07,2.67-.64,2.62-2.7C431,202.48,431,195.84,431,189.21Z" transform="translate(-0.03)"/><path class="cls-4" d="M100.52,262.91a4.07,4.07,0,0,1,1.39-3.07c6.9-6.57,13.36-11.07,20.23-14.08A2.61,2.61,0,0,1,124.4,244h.18a2.5,2.5,0,0,1,1.13.26l7.45-3-6.2,6.38a2.61,2.61,0,0,1-1.27,1.31l-25.17,25.94Z" transform="translate(-0.03)"/><path class="cls-1" d="M124.58,246.21a.43.43,0,0,1,.43.41h0a.41.41,0,0,1-.38.44l-.14.06.05-.06a.4.4,0,0,1-.38-.39.42.42,0,0,1,.39-.47h0m-.09.92-21.8,22.46v-6.68a1.9,1.9,0,0,1,.68-1.46c6.27-6,13.09-11.1,21.12-14.32m17.34-11.64L125.65,242a4.74,4.74,0,0,0-1.07-.12h-.34a4.76,4.76,0,0,0-3.68,2.21c-6.83,3.1-13.28,7.65-20.12,14.15a6.29,6.29,0,0,0-2.09,4.66v17.39l7.45-7.68L127,250.75a4.92,4.92,0,0,0,1.73-1.78l13.08-13.48Z" transform="translate(-0.03)"/><path class="cls-4" d="M531.39,167.91h-10.1c-2.34-2.39-4.62-4.84-7-7.15a4.52,4.52,0,0,1-1.55-3.77c.11-2.37,0-4.75,0-7.75Z" transform="translate(-0.03)"/><path class="cls-10" d="M553.33,189a8.3,8.3,0,0,1-1.41,0c-5.89-.15-5.89-.16-5.5-6.13C548.79,184.88,550.34,187.76,553.33,189Z" transform="translate(-0.03)"/><path class="cls-11" d="M41.61,404.31c3.78-.31,3.84-.25,3.1,3.59Z" transform="translate(-0.03)"/><path class="cls-6" d="M554.36,209c-2.51.74-5.06.33-7.59.23C549.28,208.68,551.83,209.11,554.36,209Z" transform="translate(-0.03)"/><path class="cls-2" d="M528.49,386.48c0,2.32-.74,2.71-2.81,2.68q-13-.15-25.91,0c-2,0-2.52-.41-2.51-2.45.07-32.64,0-65.27.1-97.9,0-2.16-.49-2.84-2.7-2.71-3.5.2-7,0-10.55.08-1.26,0-1.81-.21-1.8-1.66q.12-12.48,0-25c0-1.45.54-1.69,1.82-1.69,14.15,0,28.31.07,42.47,0,2.08,0,1.83,1.11,1.83,2.41v63.34C528.43,344.59,528.39,365.52,528.49,386.48Z" transform="translate(-0.03)"/><path class="cls-12" d="M531.39,228.17c0,10.5-9,19.17-19.82,19.18A19.47,19.47,0,0,1,492,228.18a19.68,19.68,0,0,1,39.36,0Z" transform="translate(-0.03)"/><path class="cls-13" d="M512.55,176.16c-.08,1.46-.3,2.25-2,2a15.76,15.76,0,0,0-2.38,0H506.5c-1.48.12-2.5.08-2.46-2s.64-2.52,2.47-2.32a15.22,15.22,0,0,0,3.57,0C512,173.59,512.71,174.2,512.55,176.16Z" transform="translate(-0.03)"/><path class="cls-14" d="M540.55,175.51c0,2.64.06,2.64-3.67,2.64a8.54,8.54,0,0,0-1.43,0c-1.57.24-2.27-.18-2.17-2,.08-1.53.07-2.64,2.11-2.33a14.27,14.27,0,0,0,3.33,0C540,173.74,540.55,174.06,540.55,175.51Z" transform="translate(-0.03)"/><path class="cls-15" d="M484.55,176.11c0,2-.81,2.25-2.37,2a6.91,6.91,0,0,0-.91,0c-.88-.53-3,1.2-3-1.7,0-2.1.51-3,2.64-2.59a4,4,0,0,0,1.19,0C483.77,173.59,484.55,174.07,484.55,176.11Z" transform="translate(-0.03)"/><path class="cls-15" d="M497.49,176.16c.07,2.12-1,2.13-2.42,2h-.91c-.8-.6-2.84,1.23-3-1.52-.09-2,.31-3.22,2.66-2.77a4,4,0,0,0,1.19,0C496.89,173.59,497.42,174.25,497.49,176.16Z" transform="translate(-0.03)"/><path class="cls-16" d="M525.55,176c0,2.56-1.41,2.11-2.87,2.11h-.43c-1.42-.09-3.21.71-3-2.12.12-1.84.62-2.42,2.33-2.18a6,6,0,0,0,1.2,0C524.3,173.78,525.55,173.59,525.55,176Z" transform="translate(-0.03)"/><path class="cls-12" d="M343.2,277h-48c-1.82,0-2.37-.21-2-2.32,1.88-12.15,5.42-23.61,13.08-33.47s18.24-15.28,30.59-16.92c9.68-1.29,19.34-1.13,28.57,2.51,14.61,5.75,23,16.83,26.68,31.83a74.38,74.38,0,0,1,1.81,16.15c0,1.81-.49,2.25-2.28,2.24C375.49,276.92,359.35,277,343.2,277Z" transform="translate(-0.03)"/><path class="cls-5" d="M524.27,323.59v60c0,2-.52,2.49-2.49,2.45q-9-.21-18,0c-2,0-2.5-.42-2.49-2.45.07-32.55,0-65.11.12-97.66,0-2.51-.68-3.1-3-3-3.43.21-6.88,0-10.31.08-1.34,0-1.8-.38-1.78-1.76.07-6.08.09-12.16,0-18.24,0-1.62.48-2,2-2,11.28.06,22.56.09,33.83,0,2,0,2.14.69,2.13,2.32Q524.24,293.5,524.27,323.59Z" transform="translate(-0.03)"/><path class="cls-5" d="M527.78,228c.06,8.45-7.31,15.79-15.94,15.88-8.79.09-16.25-7.18-16.2-15.8a16.07,16.07,0,0,1,32.14-.08Z" transform="translate(-0.03)"/><path class="cls-6" d="M338.91,271.72c-4.87,0-9.75-.13-14.62.06-2.32.09-2.83-.74-2.73-2.85a97.52,97.52,0,0,0,0-10.54,7.23,7.23,0,0,1,2.41-5.92A39.48,39.48,0,0,1,346.85,241c2.59-.38,5.21-.6,7.82-.91,1.39-.17,2,.27,2,1.82-.06,8.71,0,17.42-.06,26.13,0,3.68-.16,3.68-3.76,3.68Z" transform="translate(-0.03)"/><path class="cls-4" d="M367.42,233.78c-2.45-.19-4.72-.42-7-.52-14.87-.71-28.64,2.17-39.88,12.7-6.85,6.42-11.21,14.45-14.2,23.27-.29.85-.16,2.22-1.28,2.34a33.55,33.55,0,0,1-5.49,0c-.54,0-.3-.63-.22-1,2.92-14,8.23-26.61,20.74-34.8,8.9-5.83,19-7.14,29.39-6.76C356.46,229.25,363.24,231,367.42,233.78Z" transform="translate(-0.03)"/><path class="cls-6" d="M379.38,271.72h-7c-1.26,0-1.89-.28-1.89-1.72q.08-13.19,0-26.38c0-1.34.34-1.66,1.66-1.21a32.61,32.61,0,0,1,9.52,5c1.7,1.31,2.11,3.53,2.92,5.41a53.81,53.81,0,0,1,3.75,16.69c.17,1.87-.54,2.37-2.29,2.27C383.86,271.59,381.62,271.72,379.38,271.72Z" transform="translate(-0.03)"/><path class="cls-1" d="M155.61,450.67h2.73l8.52,13.81V450.67H169v17.09h-2.6L157.82,454v13.79h-2.21Z" transform="translate(-0.03)"/><path class="cls-1" d="M174.25,455.3v8.29a3.61,3.61,0,0,0,.29,1.56,2,2,0,0,0,2,1.12,2.88,2.88,0,0,0,2.9-2,8,8,0,0,0,.42-2.87v-6.12H182v12.46h-2V465.9a4,4,0,0,1-1,1.2,4.3,4.3,0,0,1-2.85,1,3.67,3.67,0,0,1-3.56-1.78,5.35,5.35,0,0,1-.51-2.55V455.3Zm5.37-5-3.07,3.35h-1.61l2.13-3.36h2.55Z" transform="translate(-0.03)"/><path class="cls-1" d="M193.26,456a4.92,4.92,0,0,1,1.59,3.52h-2a3.77,3.77,0,0,0-.85-1.91,2.67,2.67,0,0,0-2.13-.76,2.94,2.94,0,0,0-2.86,2,7.79,7.79,0,0,0-.56,3.13,5.91,5.91,0,0,0,.79,3.15,3.06,3.06,0,0,0,4.27.7h0a1.71,1.71,0,0,0,.26-.21,4.33,4.33,0,0,0,1.05-2.17h2a4.91,4.91,0,0,1-5,4.78h-.28a4.78,4.78,0,0,1-3.9-1.79,6.85,6.85,0,0,1-1.45-4.46,7.49,7.49,0,0,1,1.59-5.11,5.16,5.16,0,0,1,4.06-1.83A5.41,5.41,0,0,1,193.26,456Z" transform="translate(-0.03)"/><path class="cls-1" d="M196.62,450.67h2.09v17.09h-2.09Z" transform="translate(-0.03)"/><path class="cls-1" d="M209.17,455.64a4.73,4.73,0,0,1,1.88,1.61,5.67,5.67,0,0,1,.83,2.2,14.91,14.91,0,0,1,.19,2.75h-9a5.33,5.33,0,0,0,.89,3,3,3,0,0,0,2.57,1.15,3.32,3.32,0,0,0,2.6-1.09,3.67,3.67,0,0,0,.77-1.46h2.06a4.37,4.37,0,0,1-.54,1.53,5.66,5.66,0,0,1-1,1.38A4.87,4.87,0,0,1,208,468a7,7,0,0,1-1.7.19,5.2,5.2,0,0,1-3.92-1.69,6.58,6.58,0,0,1-1.61-4.74,7.18,7.18,0,0,1,1.62-4.87,5.35,5.35,0,0,1,4.23-1.87A5.65,5.65,0,0,1,209.17,455.64Zm.75,4.89a5.37,5.37,0,0,0-.59-2.18,3,3,0,0,0-2.85-1.51,3.15,3.15,0,0,0-2.4,1,4,4,0,0,0-1,2.65h6.86Z" transform="translate(-0.03)"/><path class="cls-1" d="M223.37,456.59a6.28,6.28,0,0,1,1.65,4.72,8.17,8.17,0,0,1-1.46,5,5.24,5.24,0,0,1-4.52,2,5.08,5.08,0,0,1-4.06-1.74,6.86,6.86,0,0,1-1.5-4.67,7.46,7.46,0,0,1,1.58-5,5.28,5.28,0,0,1,4.25-1.86A5.61,5.61,0,0,1,223.37,456.59Zm-1.3,8.28a8,8,0,0,0,.77-3.5,6.3,6.3,0,0,0-.55-2.84,3.1,3.1,0,0,0-3-1.72,3,3,0,0,0-2.76,1.46,6.82,6.82,0,0,0-.86,3.53,6,6,0,0,0,.86,3.31,3,3,0,0,0,2.74,1.32,2.85,2.85,0,0,0,2.8-1.61Z" transform="translate(-0.03)"/><path class="cls-1" d="M240.29,455.68a5.61,5.61,0,0,1,1.26,1.22v-6.31h2v17.15h-1.88V466a4.52,4.52,0,0,1-1.73,1.66,4.88,4.88,0,0,1-2.28.51,4.61,4.61,0,0,1-3.59-1.75,6.86,6.86,0,0,1-1.52-4.64,8.08,8.08,0,0,1,1.38-4.72,4.55,4.55,0,0,1,4-2A4.44,4.44,0,0,1,240.29,455.68ZM235.62,465a3,3,0,0,0,2.71,1.35,2.84,2.84,0,0,0,2.38-1.25,5.91,5.91,0,0,0,.93-3.59,5.33,5.33,0,0,0-1-3.5,3,3,0,0,0-2.37-1.13,3.16,3.16,0,0,0-2.55,1.21,5.57,5.57,0,0,0-1,3.56A6.27,6.27,0,0,0,235.62,465Z" transform="translate(-0.03)"/><path class="cls-1" d="M254,455.64a4.73,4.73,0,0,1,1.88,1.61,5.67,5.67,0,0,1,.83,2.2,14.91,14.91,0,0,1,.19,2.75h-9.06a5.33,5.33,0,0,0,.89,3,3,3,0,0,0,2.57,1.15,3.32,3.32,0,0,0,2.6-1.09,3.67,3.67,0,0,0,.77-1.46h2.06a4.37,4.37,0,0,1-.54,1.53,5.66,5.66,0,0,1-1,1.38,4.84,4.84,0,0,1-2.34,1.26,7,7,0,0,1-1.7.19,5.2,5.2,0,0,1-3.92-1.69,6.58,6.58,0,0,1-1.61-4.74,7.18,7.18,0,0,1,1.62-4.87A5.35,5.35,0,0,1,251.5,455,5.72,5.72,0,0,1,254,455.64Zm.75,4.89a5.37,5.37,0,0,0-.59-2.18,3,3,0,0,0-2.85-1.51,3.15,3.15,0,0,0-2.4,1,4,4,0,0,0-1,2.65h6.86Z" transform="translate(-0.03)"/><path class="cls-1" d="M265.93,450.67h12.4v2.09H268.18V458h9.37v2h-9.38v5.79h10.38v2H265.93Z" transform="translate(-0.03)"/><path class="cls-1" d="M282.18,463.85a3,3,0,0,0,.53,1.61,3.36,3.36,0,0,0,2.8,1,4.23,4.23,0,0,0,2.09-.51,1.67,1.67,0,0,0,.9-1.56,1.35,1.35,0,0,0-.72-1.22,8.8,8.8,0,0,0-1.82-.59l-1.69-.42a8.48,8.48,0,0,1-2.39-.88,2.62,2.62,0,0,1-1.37-2.35,3.58,3.58,0,0,1,1.29-2.86,5.18,5.18,0,0,1,3.47-1.09,4.85,4.85,0,0,1,4.11,1.65,3.56,3.56,0,0,1,.77,2.26h-2a2.43,2.43,0,0,0-.51-1.29,3.33,3.33,0,0,0-2.56-.82,3.12,3.12,0,0,0-1.84.45,1.41,1.41,0,0,0-.62,1.19,1.45,1.45,0,0,0,.82,1.3,5,5,0,0,0,1.4.51l1.41.34a11.24,11.24,0,0,1,3.08,1.06,2.8,2.8,0,0,1,1.22,2.52,3.83,3.83,0,0,1-1.28,2.87,5.48,5.48,0,0,1-3.89,1.21c-1.87,0-3.21-.42-4-1.26a4.74,4.74,0,0,1-1.25-3.12h2.05Z" transform="translate(-0.03)"/><path class="cls-1" d="M292.89,451.82H295v3.48h2V457h-2v8.13a.88.88,0,0,0,.44.87,1.87,1.87,0,0,0,.81.13h.7v1.66a5,5,0,0,1-.75.15,5.89,5.89,0,0,1-.84,0,2.26,2.26,0,0,1-2-.75,3.35,3.35,0,0,1-.52-1.95V457h-1.69v-1.71h1.69v-3.48Z" transform="translate(-0.03)"/><path class="cls-1" d="M300.8,455.3v8.29a3.61,3.61,0,0,0,.29,1.56,2,2,0,0,0,2,1.12,2.88,2.88,0,0,0,2.9-2,8,8,0,0,0,.42-2.87v-6.12h2.14v12.46h-2V465.9a4,4,0,0,1-1,1.2,4.3,4.3,0,0,1-2.85,1,3.67,3.67,0,0,1-3.56-1.78,5.35,5.35,0,0,1-.51-2.55V455.3Z" transform="translate(-0.03)"/><path class="cls-1" d="M318.42,455.68a5.61,5.61,0,0,1,1.26,1.22v-6.31h2v17.15H319.8V466a4.52,4.52,0,0,1-1.73,1.66,4.88,4.88,0,0,1-2.28.51,4.61,4.61,0,0,1-3.59-1.75,6.89,6.89,0,0,1-1.52-4.66,8.08,8.08,0,0,1,1.38-4.72,4.55,4.55,0,0,1,4-2A4.37,4.37,0,0,1,318.42,455.68ZM313.75,465a3,3,0,0,0,2.71,1.35,2.84,2.84,0,0,0,2.38-1.25,5.91,5.91,0,0,0,.93-3.59,5.33,5.33,0,0,0-1-3.5,3,3,0,0,0-2.37-1.13,3.16,3.16,0,0,0-2.55,1.21,5.57,5.57,0,0,0-1,3.56A6.27,6.27,0,0,0,313.75,465Z" transform="translate(-0.03)"/><path class="cls-1" d="M331.12,460.22a1.13,1.13,0,0,0,1-.6,1.87,1.87,0,0,0,.14-.81,1.7,1.7,0,0,0-.76-1.56,4,4,0,0,0-2.18-.48,2.75,2.75,0,0,0-2.32.89,3,3,0,0,0-.5,1.46h-2a3.61,3.61,0,0,1,1.49-3.21,6.11,6.11,0,0,1,3.33-.9,6.85,6.85,0,0,1,3.57.84,2.84,2.84,0,0,1,1.36,2.61v7.13a1.06,1.06,0,0,0,.13.52.65.65,0,0,0,.56.2h.31l.37-.05v1.55a4.7,4.7,0,0,1-.74.18h-.7a1.72,1.72,0,0,1-1.57-.77,3,3,0,0,1-.36-1.15,5.41,5.41,0,0,1-1.84,1.45,5.64,5.64,0,0,1-2.64.62,3.94,3.94,0,0,1-2.83-1.05,3.53,3.53,0,0,1-1.1-2.63,3.39,3.39,0,0,1,1.08-2.68,5.16,5.16,0,0,1,2.84-1.17Zm-4.41,5.66a2.47,2.47,0,0,0,1.57.52,4.81,4.81,0,0,0,2.14-.51,2.87,2.87,0,0,0,1.74-2.78v-1.68a3.35,3.35,0,0,1-1,.41,9.46,9.46,0,0,1-1.18.23l-1.27.16a4.92,4.92,0,0,0-1.71.48,1.83,1.83,0,0,0-1,1.74,1.73,1.73,0,0,0,.71,1.42Z" transform="translate(-0.03)"/><path class="cls-1" d="M337.31,455.3h2v1.77a5.55,5.55,0,0,1,1.87-1.57,4.93,4.93,0,0,1,2.2-.48,3.61,3.61,0,0,1,3.58,1.85,6.57,6.57,0,0,1,.51,2.9v8h-2.13v-7.85a4.3,4.3,0,0,0-.34-1.84,2,2,0,0,0-2-1.16,4.21,4.21,0,0,0-1.22.15,3.22,3.22,0,0,0-1.51,1,3.07,3.07,0,0,0-.68,1.27,8.48,8.48,0,0,0-.16,1.88v6.53h-2.09V455.3Z" transform="translate(-0.03)"/><path class="cls-1" d="M350.6,451.82h2.12v3.48h2V457h-2v8.13a.88.88,0,0,0,.44.87,1.87,1.87,0,0,0,.81.13h.74v1.66a5,5,0,0,1-.75.15,5.89,5.89,0,0,1-.84,0,2.26,2.26,0,0,1-2-.75,3.35,3.35,0,0,1-.52-1.95V457h-1.69v-1.71h1.69v-3.48Z" transform="translate(-0.03)"/><path class="cls-1" d="M364.12,455.64a4.73,4.73,0,0,1,1.88,1.61,5.67,5.67,0,0,1,.83,2.2,14.91,14.91,0,0,1,.19,2.75H358a5.33,5.33,0,0,0,.89,3,3,3,0,0,0,2.57,1.15,3.32,3.32,0,0,0,2.6-1.09,3.67,3.67,0,0,0,.77-1.46h2.06a4.37,4.37,0,0,1-.54,1.53,5.66,5.66,0,0,1-1,1.38A4.84,4.84,0,0,1,363,468a7,7,0,0,1-1.7.19,5.2,5.2,0,0,1-3.92-1.69,6.58,6.58,0,0,1-1.61-4.74,7.18,7.18,0,0,1,1.62-4.87,5.35,5.35,0,0,1,4.23-1.87A5.72,5.72,0,0,1,364.12,455.64Zm.75,4.89a5.37,5.37,0,0,0-.59-2.18,3,3,0,0,0-2.85-1.51,3.15,3.15,0,0,0-2.4,1,4,4,0,0,0-1,2.65h6.86Z" transform="translate(-0.03)"/><path class="cls-1" d="M370.55,463.85a3,3,0,0,0,.53,1.61,3.36,3.36,0,0,0,2.8,1A4.23,4.23,0,0,0,376,466a1.67,1.67,0,0,0,.9-1.56,1.35,1.35,0,0,0-.72-1.22,8.8,8.8,0,0,0-1.82-.59l-1.69-.42a8.48,8.48,0,0,1-2.39-.88,2.62,2.62,0,0,1-1.37-2.35,3.58,3.58,0,0,1,1.29-2.86,5.18,5.18,0,0,1,3.47-1.09,4.82,4.82,0,0,1,4.11,1.61,3.56,3.56,0,0,1,.77,2.26h-2a2.43,2.43,0,0,0-.51-1.29,3.33,3.33,0,0,0-2.56-.82,3.12,3.12,0,0,0-1.84.45,1.41,1.41,0,0,0-.62,1.19,1.45,1.45,0,0,0,.82,1.3,5,5,0,0,0,1.4.51l1.41.34a11.24,11.24,0,0,1,3.08,1.06,2.8,2.8,0,0,1,1.22,2.52,3.83,3.83,0,0,1-1.28,2.87,5.48,5.48,0,0,1-3.89,1.21c-1.87,0-3.21-.42-4-1.26a4.74,4.74,0,0,1-1.25-3.12h2Z" transform="translate(-0.03)"/><path class="cls-1" d="M393.9,455.68a5.61,5.61,0,0,1,1.26,1.22v-6.31h2v17.15h-1.88V466a4.43,4.43,0,0,1-1.73,1.68,4.88,4.88,0,0,1-2.28.51,4.61,4.61,0,0,1-3.59-1.75,6.89,6.89,0,0,1-1.52-4.66,8.08,8.08,0,0,1,1.38-4.72,4.55,4.55,0,0,1,4-2A4.44,4.44,0,0,1,393.9,455.68ZM389.23,465a3,3,0,0,0,2.71,1.35,2.84,2.84,0,0,0,2.38-1.25,5.91,5.91,0,0,0,.93-3.59,5.33,5.33,0,0,0-1-3.5,3,3,0,0,0-2.37-1.13,3.16,3.16,0,0,0-2.55,1.21,5.57,5.57,0,0,0-1,3.56A6.27,6.27,0,0,0,389.23,465Z" transform="translate(-0.03)"/><path class="cls-1" d="M407.62,455.64a4.73,4.73,0,0,1,1.88,1.61,5.67,5.67,0,0,1,.83,2.2,14.91,14.91,0,0,1,.19,2.75h-9.06a5.33,5.33,0,0,0,.89,3,3,3,0,0,0,2.57,1.15,3.32,3.32,0,0,0,2.6-1.09,3.67,3.67,0,0,0,.77-1.46h2.06a4.37,4.37,0,0,1-.54,1.53,5.66,5.66,0,0,1-1,1.38,4.84,4.84,0,0,1-2.34,1.26,7,7,0,0,1-1.7.19,5.2,5.2,0,0,1-3.92-1.69,6.58,6.58,0,0,1-1.61-4.74,7.18,7.18,0,0,1,1.62-4.87,5.35,5.35,0,0,1,4.23-1.87A5.72,5.72,0,0,1,407.62,455.64Zm.75,4.89a5.37,5.37,0,0,0-.59-2.18,3,3,0,0,0-2.85-1.51,3.15,3.15,0,0,0-2.4,1,4,4,0,0,0-1,2.65h6.86Z" transform="translate(-0.03)"/><path class="cls-1" d="M419.84,450.67h2.34v17.09h-2.34Z" transform="translate(-0.03)"/><path class="cls-1" d="M425.27,455.3h2v1.77a5.55,5.55,0,0,1,1.87-1.57,4.93,4.93,0,0,1,2.2-.48,3.61,3.61,0,0,1,3.58,1.85,6.57,6.57,0,0,1,.51,2.9v8H433.3v-7.85a4.3,4.3,0,0,0-.34-1.84,2,2,0,0,0-2-1.16,4.21,4.21,0,0,0-1.22.15,3.22,3.22,0,0,0-1.51,1,3.07,3.07,0,0,0-.68,1.27,8.48,8.48,0,0,0-.16,1.88v6.53H425.3V455.3Z" transform="translate(-0.03)"/><path class="cls-1" d="M439.12,451.49a3.19,3.19,0,0,1,2.83-1.07h.89v1.91h-.76a1.09,1.09,0,0,0-1.15.49,9.71,9.71,0,0,0-.19,2.52h2.09V457h-2.09v10.75h-2.07V457h-1.73v-1.65h1.73v-2A3.66,3.66,0,0,1,439.12,451.49Z" transform="translate(-0.03)"/><path class="cls-1" d="M453.41,456.59a6.28,6.28,0,0,1,1.65,4.72,8.17,8.17,0,0,1-1.46,5,5.24,5.24,0,0,1-4.52,2,5.08,5.08,0,0,1-4.06-1.74,6.86,6.86,0,0,1-1.5-4.67,7.46,7.46,0,0,1,1.58-5,5.28,5.28,0,0,1,4.25-1.86A5.61,5.61,0,0,1,453.41,456.59Zm-1.3,8.28a8,8,0,0,0,.77-3.5,6.3,6.3,0,0,0-.55-2.84,3.1,3.1,0,0,0-3-1.72,3,3,0,0,0-2.76,1.46,6.82,6.82,0,0,0-.86,3.53,6,6,0,0,0,.86,3.31,3,3,0,0,0,2.74,1.32,2.85,2.85,0,0,0,2.8-1.61Z" transform="translate(-0.03)"/><path class="cls-1" d="M457.31,455.3h2v2.15a4.72,4.72,0,0,1,1.2-1.53,3.14,3.14,0,0,1,2.2-.9h.68v2.21h-.68a3,3,0,0,0-2.43,1,3.52,3.52,0,0,0-.85,2.34v7.17h-2.09V455.3Z" transform="translate(-0.03)"/><path class="cls-1" d="M464.8,455.3h2.07v1.77a6.85,6.85,0,0,1,1.35-1.34,4.09,4.09,0,0,1,2.35-.71,3.69,3.69,0,0,1,2.4.73,3.74,3.74,0,0,1,.93,1.23,4.33,4.33,0,0,1,3.76-2,3.46,3.46,0,0,1,3.42,1.82,6,6,0,0,1,.49,2.63v8.29H479.4V459.1a2,2,0,0,0-.62-1.71,2.45,2.45,0,0,0-1.52-.47,3,3,0,0,0-2.12.83,3.63,3.63,0,0,0-.89,2.76v7.25h-2.13v-8.17a4.19,4.19,0,0,0-.3-1.85,1.85,1.85,0,0,0-1.78-.87,3.09,3.09,0,0,0-2.16.92,4.46,4.46,0,0,0-1,3.33v6.61h-2.09V455.3Z" transform="translate(-0.03)"/><path class="cls-1" d="M491,460.22a1.13,1.13,0,0,0,1-.6,1.87,1.87,0,0,0,.14-.81,1.7,1.7,0,0,0-.76-1.56,4,4,0,0,0-2.18-.48,2.75,2.75,0,0,0-2.32.89,3,3,0,0,0-.5,1.46h-2a3.61,3.61,0,0,1,1.49-3.21,6.11,6.11,0,0,1,3.33-.9,6.85,6.85,0,0,1,3.57.84,2.84,2.84,0,0,1,1.36,2.61v7.13a1.06,1.06,0,0,0,.13.52.65.65,0,0,0,.56.2h.31l.37-.05v1.55a4.7,4.7,0,0,1-.74.18H494a1.72,1.72,0,0,1-1.57-.77,3,3,0,0,1-.36-1.15,5.41,5.41,0,0,1-1.84,1.45,5.64,5.64,0,0,1-2.64.62,3.94,3.94,0,0,1-2.83-1.05,3.53,3.53,0,0,1-1.1-2.63,3.39,3.39,0,0,1,1.08-2.68,5.16,5.16,0,0,1,2.84-1.17Zm-4.4,5.65a2.47,2.47,0,0,0,1.57.52,4.81,4.81,0,0,0,2.14-.51A2.87,2.87,0,0,0,492,463.1v-1.68a3.35,3.35,0,0,1-1,.41,7.93,7.93,0,0,1-1.18.23l-1.27.16a4.92,4.92,0,0,0-1.71.48,1.83,1.83,0,0,0-1,1.74,1.71,1.71,0,0,0,.68,1.43Zm5.29-15.59-3.11,3.36h-1.61l2.13-3.36Z" transform="translate(-0.03)"/><path class="cls-1" d="M497.55,451.82h2.12v3.48h2V457h-2v8.13a.88.88,0,0,0,.44.87,1.87,1.87,0,0,0,.81.13h.74v1.66a5,5,0,0,1-.75.15,5.89,5.89,0,0,1-.84,0,2.26,2.26,0,0,1-2-.75,3.35,3.35,0,0,1-.52-1.95V457h-1.69v-1.71h1.69v-3.48Z" transform="translate(-0.03)"/><path class="cls-1" d="M503.38,450.67h2.17V453h-2.13v-2.37Zm0,4.69h2.17v12.4h-2.13v-12.4Z" transform="translate(-0.03)"/><path class="cls-1" d="M516.55,456a4.92,4.92,0,0,1,1.59,3.52h-2a3.77,3.77,0,0,0-.85-1.91,2.67,2.67,0,0,0-2.13-.76,2.94,2.94,0,0,0-2.86,2,7.79,7.79,0,0,0-.56,3.13,5.91,5.91,0,0,0,.79,3.15,3.06,3.06,0,0,0,4.27.7h0a1.71,1.71,0,0,0,.26-.21,4.33,4.33,0,0,0,1-2.17h2a4.91,4.91,0,0,1-5,4.78h-.28a4.78,4.78,0,0,1-3.9-1.79,6.85,6.85,0,0,1-1.45-4.46,7.49,7.49,0,0,1,1.59-5.11,5.16,5.16,0,0,1,4.06-1.83A5.41,5.41,0,0,1,516.55,456Z" transform="translate(-0.03)"/><path class="cls-1" d="M526.5,460.22a1.13,1.13,0,0,0,1-.6,1.87,1.87,0,0,0,.14-.81,1.7,1.7,0,0,0-.76-1.56,4,4,0,0,0-2.18-.48,2.75,2.75,0,0,0-2.32.89,3,3,0,0,0-.5,1.46h-2a3.61,3.61,0,0,1,1.49-3.21,6.11,6.11,0,0,1,3.33-.9,6.85,6.85,0,0,1,3.57.84,2.84,2.84,0,0,1,1.36,2.61v7.13a1.06,1.06,0,0,0,.13.52.65.65,0,0,0,.56.2h.31l.37-.05v1.55a4.7,4.7,0,0,1-.74.18h-.7a1.72,1.72,0,0,1-1.57-.77,3,3,0,0,1-.36-1.15,5.41,5.41,0,0,1-1.84,1.45,5.64,5.64,0,0,1-2.64.62,3.94,3.94,0,0,1-2.83-1.05,3.53,3.53,0,0,1-1.1-2.63,3.39,3.39,0,0,1,1.08-2.68,5.16,5.16,0,0,1,2.84-1.17Zm-4.41,5.66a2.47,2.47,0,0,0,1.57.52,4.81,4.81,0,0,0,2.14-.51,2.87,2.87,0,0,0,1.74-2.78v-1.68a3.35,3.35,0,0,1-1,.41,9.46,9.46,0,0,1-1.18.23l-1.27.16a4.92,4.92,0,0,0-1.71.48,1.83,1.83,0,0,0-1,1.74,1.73,1.73,0,0,0,.71,1.42Z" transform="translate(-0.03)"/></svg>