<svg width="434" height="155" viewBox="0 0 434 155" fill="none" xmlns="http://www.w3.org/2000/svg">
<path d="M26.82 149.58L26.4408 150.505L26.82 149.58ZM8.2 135.52L7.39405 136.112L7.40196 136.123L8.2 135.52ZM0.98 113.1V112.1C0.70976 112.1 0.451024 112.209 0.262723 112.403C0.0744228 112.597 -0.0274096 112.859 -0.0195794 113.129L0.98 113.1ZM35.56 113.1L36.5548 112.998C36.5025 112.488 36.0728 112.1 35.56 112.1V113.1ZM40.69 124.5L40.0157 125.238C40.0217 125.244 40.0277 125.249 40.0338 125.255L40.69 124.5ZM63.49 125.07L64.1014 125.861C64.1088 125.856 64.1161 125.85 64.1232 125.844L63.49 125.07ZM64.25 107.59L63.5429 108.297C63.5496 108.304 63.5565 108.31 63.5634 108.317L64.25 107.59ZM56.08 102.27L55.6773 103.185C55.6816 103.187 55.686 103.189 55.6904 103.191L56.08 102.27ZM42.4 97.52L42.1049 98.4755L42.1145 98.4784L42.4 97.52ZM21.31 89.54L20.8712 90.4386L21.31 89.54ZM7.25 77.76L8.04766 77.1569L7.25 77.76ZM14.85 28.36L15.4624 29.1506L15.4693 29.1452L14.85 28.36ZM85.53 28.36L84.9107 29.1452L84.9176 29.1505L85.53 28.36ZM99.97 57.62V58.62C100.244 58.62 100.506 58.5076 100.695 58.309C100.883 58.1105 100.983 57.8432 100.969 57.5696L99.97 57.62ZM64.82 57.62L63.8217 57.6787C63.8528 58.2073 64.2905 58.62 64.82 58.62V57.62ZM60.07 47.55L59.4138 48.3046C59.4202 48.3101 59.4266 48.3156 59.4331 48.321L60.07 47.55ZM39.36 46.98L40.0041 47.7449C40.0118 47.7385 40.0193 47.7319 40.0268 47.7252L39.36 46.98ZM41.83 65.98L42.3405 65.1201L41.83 65.98ZM60.83 73.77L61.1504 72.8226L61.1378 72.8186L60.83 73.77ZM81.73 82.13L81.2828 83.0245L81.2912 83.0286L81.73 82.13ZM95.79 93.72L94.9996 94.3326L95.79 93.72ZM95.79 134L94.9449 133.465C94.9423 133.469 94.9397 133.474 94.9371 133.478L95.79 134ZM79.07 148.82L78.6228 147.926L79.07 148.82ZM53.04 153.33C43.3952 153.33 34.7871 151.764 27.1992 148.655L26.4408 150.505C34.3062 153.729 43.1782 155.33 53.04 155.33V153.33ZM27.1992 148.655C19.6259 145.551 13.5686 140.97 8.99804 134.917L7.40196 136.123C12.2047 142.483 18.5608 147.276 26.4408 150.505L27.1992 148.655ZM9.00588 134.928C4.58195 128.906 2.22785 121.636 1.97958 113.071L-0.0195794 113.129C0.238813 122.044 2.69805 129.72 7.39412 136.112L9.00588 134.928ZM0.98 114.1H35.56V112.1H0.98V114.1ZM34.5652 113.202C35.0902 118.321 36.8777 122.373 40.0157 125.238L41.3643 123.762C38.6757 121.307 37.0431 117.759 36.5548 112.998L34.5652 113.202ZM40.0338 125.255C43.1661 127.978 47.2161 129.3 52.09 129.3V127.3C47.5906 127.3 44.0406 126.088 41.3462 123.745L40.0338 125.255ZM52.09 129.3C57.0444 129.3 61.0854 128.192 64.1014 125.861L62.8786 124.279C60.3213 126.255 56.7622 127.3 52.09 127.3V129.3ZM64.1232 125.844C67.165 123.355 68.67 119.956 68.67 115.76H66.67C66.67 119.418 65.3884 122.225 62.8568 124.296L64.1232 125.844ZM68.67 115.76C68.67 112.207 67.4276 109.216 64.9366 106.863L63.5634 108.317C65.6324 110.271 66.67 112.726 66.67 115.76H68.67ZM64.9571 106.883C62.6983 104.624 59.8613 102.784 56.4696 101.349L55.6904 103.191C58.8854 104.543 61.495 106.249 63.5429 108.297L64.9571 106.883ZM56.4827 101.355C53.2592 99.9363 48.6527 98.3391 42.6855 96.5616L42.1145 98.4784C48.054 100.248 52.5674 101.817 55.6773 103.185L56.4827 101.355ZM42.6951 96.5645C34.1098 93.9132 27.1327 91.2707 21.7488 88.6414L20.8712 90.4386C26.3807 93.1293 33.4636 95.8068 42.1049 98.4755L42.6951 96.5645ZM21.7488 88.6414C16.4537 86.0554 11.8868 82.2344 8.04766 77.1569L6.45234 78.3631C10.4666 83.6722 15.273 87.7046 20.8712 90.4386L21.7488 88.6414ZM8.04766 77.1569C4.28545 72.1811 2.36 65.6346 2.36 57.43H0.360001C0.360001 65.9454 2.36122 72.9523 6.45234 78.3631L8.04766 77.1569ZM2.36 57.43C2.36 45.2935 6.73811 35.9088 15.4624 29.1505L14.2376 27.5694C4.97523 34.7445 0.360001 44.7398 0.360001 57.43H2.36ZM15.4693 29.1452C24.2445 22.2239 35.725 18.72 50 18.72V16.72C35.395 16.72 23.4422 20.3094 14.2307 27.5748L15.4693 29.1452ZM50 18.72C64.533 18.72 76.1384 22.2262 84.9107 29.1452L86.1493 27.5748C76.9349 20.3071 64.8537 16.72 50 16.72V18.72ZM84.9176 29.1505C93.6548 35.9188 98.3509 45.3877 98.9713 57.6704L100.969 57.5696C100.322 44.7723 95.3919 34.7345 86.1424 27.5694L84.9176 29.1505ZM99.97 56.62H64.82V58.62H99.97V56.62ZM65.8183 57.5613C65.5512 53.0205 63.8656 49.3884 60.7069 46.779L59.4331 48.321C62.1011 50.5249 63.5822 53.6062 63.8217 57.6787L65.8183 57.5613ZM60.7262 46.7954C57.5989 44.076 53.6151 42.75 48.86 42.75V44.75C53.2249 44.75 56.7144 45.9573 59.4138 48.3046L60.7262 46.7954ZM48.86 42.75C44.743 42.75 41.3209 43.8837 38.6932 46.2348L40.0268 47.7252C42.2125 45.7696 45.1237 44.75 48.86 44.75V42.75ZM38.7159 46.2151C36.0291 48.4776 34.75 51.7679 34.75 55.91H36.75C36.75 52.1988 37.8776 49.5357 40.0041 47.7449L38.7159 46.2151ZM34.75 55.91C34.75 60.6081 36.9973 64.2736 41.3195 66.8399L42.3405 65.1201C38.556 62.8731 36.75 59.8252 36.75 55.91H34.75ZM41.3195 66.8399C45.471 69.3048 51.8902 71.9287 60.5222 74.7214L61.1378 72.8186C52.5432 70.0379 46.2957 67.4685 42.3405 65.1201L41.3195 66.8399ZM60.5096 74.7173C69.0996 77.6227 76.0192 80.3926 81.2828 83.0244L82.1772 81.2356C76.8008 78.5474 69.787 75.7439 61.1504 72.8227L60.5096 74.7173ZM81.2912 83.0286C86.5924 85.6175 91.1612 89.3797 94.9996 94.3326L96.5804 93.1074C92.5655 87.9269 87.7609 83.9624 82.1688 81.2314L81.2912 83.0286ZM94.9996 94.3326C98.76 99.1847 100.68 105.476 100.68 113.29H102.68C102.68 105.144 100.673 98.3887 96.5804 93.1074L94.9996 94.3326ZM100.68 113.29C100.68 120.708 98.7667 127.424 94.9449 133.465L96.6351 134.535C100.667 128.162 102.68 121.072 102.68 113.29H100.68ZM94.9371 133.478C91.247 139.505 85.8242 144.325 78.6228 147.926L79.5172 149.714C87.0092 145.968 92.733 140.908 96.6429 134.522L94.9371 133.478ZM78.6228 147.926C71.442 151.516 62.9248 153.33 53.04 153.33V155.33C63.1685 155.33 72.0046 153.471 79.5172 149.714L78.6228 147.926ZM216.105 58L215.364 58.6715L215.369 58.6773L216.105 58ZM227.125 153V154C227.677 154 228.125 153.552 228.125 153H227.125ZM194.825 153H193.825C193.825 153.552 194.272 154 194.825 154V153ZM189.315 78.9L188.584 79.5832L189.315 78.9ZM159.675 78.9L160.405 79.5832L159.675 78.9ZM154.165 153V154C154.717 154 155.165 153.552 155.165 153H154.165ZM121.675 153H120.675C120.675 153.552 121.122 154 121.675 154V153ZM121.675 12.4V11.4C121.122 11.4 120.675 11.8477 120.675 12.4H121.675ZM154.165 12.4H155.165C155.165 11.8477 154.717 11.4 154.165 11.4V12.4ZM154.165 61.23H153.165C153.165 61.6661 153.447 62.052 153.863 62.1835C154.279 62.315 154.732 62.1618 154.983 61.8049L154.165 61.23ZM167.655 50.02L167.215 49.1216L167.655 50.02ZM186.845 46.84C198.757 46.84 208.229 50.7986 215.364 58.6715L216.846 57.3285C209.287 48.988 199.252 44.84 186.845 44.84V46.84ZM215.369 58.6773C222.5 66.4232 226.125 77.1743 226.125 91.06H228.125C228.125 76.8257 224.402 65.5368 216.84 57.3227L215.369 58.6773ZM226.125 91.06V153H228.125V91.06H226.125ZM227.125 152H194.825V154H227.125V152ZM195.825 153V95.43H193.825V153H195.825ZM195.825 95.43C195.825 88.1661 193.941 82.3817 190.045 78.2168L188.584 79.5832C192.035 83.2717 193.825 88.5072 193.825 95.43H195.825ZM190.045 78.2168C186.153 74.0563 180.931 72.01 174.495 72.01V74.01C180.471 74.01 185.13 75.8904 188.584 79.5832L190.045 78.2168ZM174.495 72.01C168.058 72.01 162.836 74.0563 158.944 78.2168L160.405 79.5832C163.859 75.8904 168.518 74.01 174.495 74.01V72.01ZM158.944 78.2168C155.048 82.3817 153.165 88.1661 153.165 95.43H155.165C155.165 88.5072 156.954 83.2717 160.405 79.5832L158.944 78.2168ZM153.165 95.43V153H155.165V95.43H153.165ZM154.165 152H121.675V154H154.165V152ZM122.675 153V12.4H120.675V153H122.675ZM121.675 13.4H154.165V11.4H121.675V13.4ZM153.165 12.4V61.23H155.165V12.4H153.165ZM154.983 61.8049C158.169 57.2708 162.529 53.6391 168.094 50.9184L167.215 49.1216C161.38 51.9742 156.747 55.8159 153.346 60.6551L154.983 61.8049ZM168.094 50.9184C173.642 48.2061 179.885 46.84 186.845 46.84V44.84C179.617 44.84 173.067 46.2606 167.215 49.1216L168.094 50.9184ZM251.982 31.02L251.288 31.7398C251.296 31.7482 251.305 31.7565 251.314 31.7646L251.982 31.02ZM251.982 5.93999L252.662 6.67278L252.663 6.67188L251.982 5.93999ZM279.722 5.93999L279.028 6.65983C279.036 6.66824 279.045 6.67648 279.054 6.68456L279.722 5.93999ZM279.722 31.02L280.402 31.7528L280.403 31.7519L279.722 31.02ZM282.192 46.98H283.192C283.192 46.4277 282.744 45.98 282.192 45.98V46.98ZM282.192 153V154C282.744 154 283.192 153.552 283.192 153H282.192ZM249.702 153H248.702C248.702 153.552 249.15 154 249.702 154V153ZM249.702 46.98V45.98C249.15 45.98 248.702 46.4277 248.702 46.98H249.702ZM266.042 34.96C260.547 34.96 256.111 33.379 252.649 30.2754L251.314 31.7646C255.199 35.2477 260.136 36.96 266.042 36.96V34.96ZM252.676 30.3002C249.325 27.0692 247.662 23.1493 247.662 18.48H245.662C245.662 23.6907 247.545 28.1308 251.288 31.7398L252.676 30.3002ZM247.662 18.48C247.662 13.6767 249.33 9.76714 252.662 6.67278L251.301 5.2072C247.54 8.69951 245.662 13.1499 245.662 18.48H247.662ZM252.663 6.67188C256.126 3.44782 260.558 1.80999 266.042 1.80999V-0.190011C260.126 -0.190011 255.184 1.59216 251.3 5.2081L252.663 6.67188ZM266.042 1.80999C271.393 1.80999 275.692 3.44359 279.028 6.65983L280.416 5.22015C276.658 1.59639 271.837 -0.190011 266.042 -0.190011V1.80999ZM279.054 6.68456C282.51 9.78246 284.232 13.6887 284.232 18.48H286.232C286.232 13.1379 284.281 8.6842 280.389 5.19542L279.054 6.68456ZM284.232 18.48C284.232 23.1374 282.514 27.0538 279.04 30.2881L280.403 31.7519C284.276 28.1462 286.232 23.7026 286.232 18.48H284.232ZM279.041 30.2872C275.708 33.3828 271.404 34.96 266.042 34.96V36.96C271.827 36.96 276.643 35.2439 280.402 31.7528L279.041 30.2872ZM281.192 46.98V153H283.192V46.98H281.192ZM282.192 152H249.702V154H282.192V152ZM250.702 153V46.98H248.702V153H250.702ZM249.702 47.98H282.192V45.98H249.702V47.98ZM358.937 73.96V74.96C359.489 74.96 359.937 74.5123 359.937 73.96H358.937ZM341.457 73.96V72.96C340.905 72.96 340.457 73.4077 340.457 73.96H341.457ZM341.457 153V154C342.009 154 342.457 153.552 342.457 153H341.457ZM308.967 153H307.967C307.967 153.552 308.415 154 308.967 154V153ZM308.967 73.96H309.967C309.967 73.4077 309.519 72.96 308.967 72.96V73.96ZM297.187 73.96H296.187C296.187 74.5123 296.635 74.96 297.187 74.96V73.96ZM297.187 46.98V45.98C296.635 45.98 296.187 46.4277 296.187 46.98H297.187ZM308.967 46.98V47.98C309.519 47.98 309.967 47.5323 309.967 46.98H308.967ZM320.177 14.3L320.845 15.0439L320.852 15.0377L320.177 14.3ZM358.367 4.22999H359.367C359.367 3.72044 358.984 3.29238 358.477 3.23611L358.367 4.22999ZM358.367 31.78L358.306 32.7781C358.581 32.795 358.851 32.6974 359.052 32.5084C359.253 32.3194 359.367 32.0558 359.367 31.78H358.367ZM345.257 34.44L345.905 35.2019V35.2019L345.257 34.44ZM341.457 46.98H340.457C340.457 47.5323 340.905 47.98 341.457 47.98V46.98ZM358.937 46.98H359.937C359.937 46.4277 359.489 45.98 358.937 45.98V46.98ZM358.937 72.96H341.457V74.96H358.937V72.96ZM340.457 73.96V153H342.457V73.96H340.457ZM341.457 152H308.967V154H341.457V152ZM309.967 153V73.96H307.967V153H309.967ZM308.967 72.96H297.187V74.96H308.967V72.96ZM298.187 73.96V46.98H296.187V73.96H298.187ZM297.187 47.98H308.967V45.98H297.187V47.98ZM309.967 46.98V43.94H307.967V46.98H309.967ZM309.967 43.94C309.967 31.0872 313.642 21.5148 320.845 15.0439L319.509 13.5561C311.766 20.5118 307.967 30.6995 307.967 43.94H309.967ZM320.852 15.0377C328.076 8.42631 338.751 5.03999 353.047 5.03999V3.03999C338.463 3.03999 327.225 6.49368 319.502 13.5623L320.852 15.0377ZM353.047 5.03999C355.448 5.03999 357.175 5.10366 358.257 5.22387L358.477 3.23611C357.279 3.10299 355.46 3.03999 353.047 3.03999V5.03999ZM357.367 4.22999V31.78H359.367V4.22999H357.367ZM358.428 30.7819C352.164 30.3983 347.452 31.2616 344.609 33.6781L345.905 35.2019C348.128 33.3117 352.157 32.4017 358.306 32.7781L358.428 30.7819ZM344.609 33.6781C341.739 36.1179 340.457 40.3553 340.457 46.03H342.457C342.457 40.5581 343.708 37.0687 345.905 35.2019L344.609 33.6781ZM340.457 46.03V46.98H342.457V46.03H340.457ZM341.457 47.98H358.937V45.98H341.457V47.98ZM357.937 46.98V73.96H359.937V46.98H357.937ZM433.294 125.45H434.294C434.294 124.898 433.846 124.45 433.294 124.45V125.45ZM433.294 153V154C433.846 154 434.294 153.552 434.294 153H433.294ZM389.214 144.45L388.551 145.199L388.559 145.206L389.214 144.45ZM379.334 73.96H380.334C380.334 73.4077 379.886 72.96 379.334 72.96V73.96ZM366.414 73.96H365.414C365.414 74.5123 365.862 74.96 366.414 74.96V73.96ZM366.414 46.98V45.98C365.862 45.98 365.414 46.4277 365.414 46.98H366.414ZM379.334 46.98V47.98C379.886 47.98 380.334 47.5323 380.334 46.98H379.334ZM379.334 21.14V20.14C378.782 20.14 378.334 20.5877 378.334 21.14H379.334ZM411.824 21.14H412.824C412.824 20.5877 412.376 20.14 411.824 20.14V21.14ZM411.824 46.98H410.824C410.824 47.5323 411.272 47.98 411.824 47.98V46.98ZM433.104 46.98H434.104C434.104 46.4277 433.656 45.98 433.104 45.98V46.98ZM433.104 73.96V74.96C433.656 74.96 434.104 74.5123 434.104 73.96H433.104ZM411.824 73.96V72.96C411.272 72.96 410.824 73.4077 410.824 73.96H411.824ZM414.104 123.36L413.428 124.097L414.104 123.36ZM432.294 125.45V153H434.294V125.45H432.294ZM433.294 152H416.764V154H433.294V152ZM416.764 152C405.139 152 396.218 149.189 389.868 143.694L388.559 145.206C395.383 151.111 404.829 154 416.764 154V152ZM389.876 143.701C383.591 138.141 380.334 129.04 380.334 116.14H378.334C378.334 129.333 381.664 139.106 388.551 145.199L389.876 143.701ZM380.334 116.14V73.96H378.334V116.14H380.334ZM379.334 72.96H366.414V74.96H379.334V72.96ZM367.414 73.96V46.98H365.414V73.96H367.414ZM366.414 47.98H379.334V45.98H366.414V47.98ZM380.334 46.98V21.14H378.334V46.98H380.334ZM379.334 22.14H411.824V20.14H379.334V22.14ZM410.824 21.14V46.98H412.824V21.14H410.824ZM411.824 47.98H433.104V45.98H411.824V47.98ZM432.104 46.98V73.96H434.104V46.98H432.104ZM433.104 72.96H411.824V74.96H433.104V72.96ZM410.824 73.96V116.52H412.824V73.96H410.824ZM410.824 116.52C410.824 119.818 411.613 122.433 413.428 124.097L414.78 122.623C413.555 121.5 412.824 119.555 412.824 116.52H410.824ZM413.428 124.097C415.226 125.745 418.073 126.45 421.704 126.45V124.45C418.241 124.45 416.021 123.761 414.78 122.623L413.428 124.097ZM421.704 126.45H433.294V124.45H421.704V126.45Z" fill="white" fill-opacity="0.2"/>
</svg>
