<?xml version="1.0" encoding="UTF-8"?>
<svg version="1.1" xmlns="http://www.w3.org/2000/svg" xmlns:xlink="http://www.w3.org/1999/xlink" x="0" y="0" width="960" height="167" viewBox="0, 0, 960, 167">
  <defs>
    <linearGradient id="Gradient_1" gradientUnits="userSpaceOnUse" x1="140.589" y1="141.725" x2="819.411" y2="24.317">
      <stop offset="0" stop-color="#EF5867"/>
      <stop offset="1" stop-color="#5031A8"/>
    </linearGradient>
  </defs>
  <g id="logo">
    <path d="M75.658,21.144 L75.658,155.138 Q75.658,159.723 72.602,162.779 Q69.544,165.837 65.214,165.837 Q60.629,165.837 57.571,162.779 Q54.515,159.723 54.515,155.138 L54.515,21.144 L10.699,21.144 Q6.368,21.144 3.184,18.086 Q0,15.03 0,10.699 Q0,6.114 3.184,3.058 Q6.368,0 10.699,0 L119.728,0 Q124.059,0 127.243,3.058 Q130.427,6.114 130.427,10.699 Q130.427,15.03 127.243,18.086 Q124.059,21.144 119.728,21.144 z M319.355,160.486 Q322.667,165.837 328.781,165.837 Q333.112,165.837 336.296,162.779 Q339.48,159.723 339.48,155.392 Q339.48,153.354 338.715,151.061 Q338.206,150.552 264.84,5.605 Q262.293,0 256.179,0 Q249.811,0 247.264,5.859 L173.643,151.061 Q172.624,153.099 172.624,155.392 Q172.624,159.723 175.808,162.779 Q178.994,165.837 183.323,165.837 L253.378,165.837 Q257.707,165.837 260.765,162.779 Q263.822,159.723 263.822,155.138 Q263.822,150.806 260.765,147.75 Q257.707,144.693 253.378,144.693 L200.646,144.693 L256.179,35.41 z M428.392,0 Q424.061,0 420.877,3.058 Q417.693,6.114 417.693,10.699 L417.693,155.138 Q417.693,159.723 420.877,162.779 Q424.061,165.837 428.392,165.837 Q432.722,165.837 435.907,162.779 Q439.091,159.723 439.091,155.138 L439.091,10.699 Q439.091,6.114 435.907,3.058 Q432.722,0 428.392,0 z M638.626,0.03 Q634.224,-0.291 630.816,2.778 L539.44,85.005 L539.44,10.875 Q539.44,6.29 536.256,3.232 Q533.07,0.176 528.741,0.176 Q524.41,0.176 521.226,3.232 Q518.042,6.29 518.042,10.875 L518.042,155.314 Q518.042,159.898 521.226,162.955 Q524.41,166.013 528.741,166.013 Q533.07,166.013 536.256,162.955 Q539.44,159.898 539.44,155.312 L539.44,113.848 L561.186,94.267 L630.382,162.955 Q630.891,163.974 631.91,164.229 Q634.968,166.267 638.789,166.013 Q642.61,165.757 645.411,162.955 Q648.469,160.154 648.597,155.822 Q648.723,151.491 645.922,148.435 L645.157,147.67 L577.141,79.909 L645.134,18.68 Q648.542,15.611 648.683,11.2 Q648.824,6.787 645.926,3.57 Q643.029,0.352 638.626,0.03 z M949.301,0 Q944.97,0 941.786,3.058 Q938.602,6.114 938.602,10.699 L938.602,155.138 Q938.602,159.723 941.786,162.779 Q944.97,165.837 949.301,165.837 Q953.632,165.837 956.816,162.779 Q960,159.723 960,155.138 L960,10.699 Q960,6.114 956.816,3.058 Q953.632,0 949.301,0 z M840.238,160.486 Q843.549,165.837 849.662,165.837 Q853.994,165.837 857.178,162.779 Q860.362,159.723 860.362,155.392 Q860.362,153.354 859.598,151.061 Q859.088,150.552 785.723,5.605 Q783.176,0 777.062,0 Q770.693,0 768.146,5.859 L694.526,151.061 Q693.507,153.099 693.507,155.392 Q693.507,159.723 696.691,162.779 Q699.875,165.837 704.206,165.837 L774.259,165.837 Q778.59,165.837 781.648,162.779 Q784.704,159.723 784.704,155.138 Q784.704,150.806 781.648,147.75 Q778.59,144.693 774.259,144.693 L721.528,144.693 L777.062,35.41 z" fill="url(#Gradient_1)"/>
  </g>
</svg>
