<svg width="30" height="25" viewBox="0 0 30 25" fill="none" xmlns="http://www.w3.org/2000/svg">
<path fill-rule="evenodd" clip-rule="evenodd" d="M19.0361 3.01556C18.3889 3.01529 17.7497 3.15871 17.1647 3.43548C16.5796 3.71225 16.0634 4.11545 15.6531 4.61599C15.2428 5.11653 14.9488 5.70191 14.7922 6.32989C14.6357 6.95786 14.6205 7.61276 14.7478 8.24731C14.7917 8.46717 14.7827 8.6943 14.7216 8.91002C14.6606 9.12574 14.5492 9.32389 14.3967 9.48818C14.2441 9.65248 14.0548 9.77822 13.8442 9.85508C13.6336 9.93194 13.4078 9.95773 13.1852 9.93031C10.139 9.55611 7.26744 8.30391 4.92041 6.32631C4.96433 7.17914 5.26041 8.08581 5.90216 9.03498L6.86408 10.4573L5.28449 11.1302L4.97991 11.2606C5.20658 11.5198 5.47858 11.7847 5.78316 12.0468C6.19033 12.3953 6.62108 12.7153 7.07233 13.0045L7.08791 13.0144H7.08933L9.28233 14.3446L6.98733 15.4921C6.87399 15.5488 6.76066 15.5998 6.64733 15.6451C7.14081 16.0552 7.68445 16.4008 8.26516 16.6736L10.2343 17.6044L8.58533 19.0267C7.68574 19.8031 6.78049 20.3825 5.60608 20.6885C7.40728 21.6479 9.41754 22.1477 11.4583 22.1434C18.2668 22.1434 23.7493 16.7105 23.7493 10.0536V9.31689L24.3514 8.89331C25.2921 8.23314 25.9565 7.34064 26.4325 6.31923H23.3725L22.9872 5.51173C22.6323 4.76467 22.0729 4.13359 21.3738 3.69175C20.6746 3.24991 19.8645 3.01544 19.0375 3.01556H19.0361ZM3.05608 13.3572C2.92239 13.5103 2.82322 13.6904 2.76529 13.8852C2.70735 14.08 2.69202 14.285 2.72033 14.4863C2.88041 15.6211 3.55899 16.5986 4.30983 17.3451C4.51383 17.5477 4.73199 17.7418 4.96149 17.9274L4.85524 17.9557C4.17383 18.1257 3.25441 18.1611 1.72299 18.0124C1.43379 17.984 1.14286 18.0453 0.889646 18.1878C0.636429 18.3304 0.433175 18.5473 0.307444 18.8093C0.181712 19.0713 0.139585 19.3656 0.186774 19.6523C0.233964 19.9391 0.368186 20.2044 0.571244 20.4122C1.989 21.8614 3.68266 23.0119 5.55227 23.7958C7.42189 24.5798 9.42959 24.9813 11.4569 24.9767C19.5503 24.9767 26.1888 18.6924 26.5642 10.7619C28.3917 9.22764 29.3055 7.14939 29.7985 5.26098C29.8533 5.05138 29.8593 4.83201 29.8161 4.61973C29.7728 4.40744 29.6814 4.20791 29.549 4.03647C29.4166 3.86503 29.2466 3.72625 29.0521 3.6308C28.8576 3.53535 28.6438 3.48578 28.4272 3.48589H25.0937C24.2784 2.21985 23.0868 1.2411 21.6865 0.687172C20.2862 0.133246 18.7475 0.0319858 17.2867 0.397621C15.8259 0.763257 14.5163 1.57741 13.5421 2.72568C12.5678 3.87394 11.9778 5.29861 11.855 6.79948C9.24359 6.11969 6.90705 4.64728 5.16691 2.58489C5.0128 2.40268 4.81516 2.26236 4.59234 2.17694C4.36951 2.09151 4.12871 2.06377 3.8923 2.09627C3.65588 2.12877 3.43151 2.22047 3.24 2.36285C3.04849 2.50524 2.89605 2.69369 2.79683 2.91073C1.93833 4.78356 1.77399 6.94256 2.73166 9.13839L2.40016 9.28006C2.08293 9.41523 1.8259 9.66147 1.67724 9.9726C1.52858 10.2837 1.49851 10.6384 1.59266 10.9701C1.85616 11.8938 2.44833 12.7098 3.05466 13.3572H3.05608Z" fill="white"/>
</svg>
